{"glyphs":{"0":{"ha":856,"x_min":60,"x_max":708,"o":"m 60 400 q 159 682 60 564 q 396 800 258 800 q 632 681 547 800 q 708 407 708 574 q 633 126 708 238 q 394 1 547 1 q 138 136 231 1 q 60 400 60 249 m 190 388 q 399 33 190 33 q 606 151 531 33 q 669 404 669 254 q 610 647 669 546 q 424 761 542 761 q 190 388 190 761 z "},"1":{"ha":413,"x_min":44,"x_max":254,"o":"m 106 684 q 101 682 106 684 q 76 674 97 681 q 54 675 64 669 q 44 690 44 681 q 63 708 44 701 q 193 764 147 743 q 222 771 208 771 q 254 740 254 771 l 254 35 q 194 0 254 0 q 135 35 135 0 l 135 657 q 119 688 135 688 q 106 684 114 688 z "},"2":{"ha":811,"x_min":114,"x_max":710,"o":"m 290 86 q 211 103 247 103 q 166 89 186 103 q 146 53 146 75 q 196 26 146 26 q 292 51 243 26 q 306 69 306 58 q 290 86 306 81 m 204 611 q 206 588 211 603 q 189 572 201 572 q 167 590 167 572 q 172 618 167 600 q 432 790 231 790 q 605 715 532 790 q 678 543 678 640 q 594 306 678 436 q 407 94 518 186 q 407 67 386 76 q 549 29 486 29 q 689 111 633 29 q 704 122 696 122 q 710 104 714 122 q 538 0 682 0 q 375 47 471 0 q 338 43 357 56 q 194 -10 253 -10 q 142 7 165 -10 q 114 54 114 26 q 145 112 114 90 q 217 133 176 133 q 321 108 264 133 q 369 108 354 94 q 499 308 449 186 q 549 550 549 429 q 406 753 549 753 q 283 713 339 753 q 204 611 228 672 z "},"3":{"ha":768,"x_min":54,"x_max":632,"o":"m 402 454 q 392 458 402 454 q 354 461 382 461 q 307 440 304 461 q 344 421 310 421 q 404 436 381 421 q 402 454 422 447 m 56 167 q 54 179 54 174 q 71 204 54 204 q 88 185 82 204 q 321 28 132 28 q 460 85 413 28 q 507 235 507 142 q 449 422 507 363 q 350 392 396 392 q 268 438 268 392 q 356 489 268 489 q 440 478 399 489 q 458 588 458 517 q 346 757 458 757 q 226 724 278 757 q 153 631 175 690 q 138 621 150 621 q 119 640 119 621 q 122 653 119 646 q 208 756 142 717 q 350 792 271 792 q 508 738 440 792 q 575 600 575 683 q 508 467 575 529 q 507 449 496 454 q 632 238 632 376 q 529 56 632 121 q 308 0 439 0 q 150 40 215 0 q 56 167 78 85 z "},"4":{"ha":785,"x_min":63,"x_max":710,"o":"m 458 240 l 458 582 q 446 607 458 607 q 433 599 440 607 q 154 276 372 535 q 150 261 149 269 q 163 253 151 251 q 222 256 193 256 q 442 224 278 256 q 458 240 458 219 m 700 229 q 590 186 632 196 q 571 163 571 182 l 571 19 q 519 -4 571 -3 q 458 25 458 -7 l 458 160 q 439 188 458 183 q 239 221 267 221 q 92 201 160 221 q 63 217 63 193 q 69 232 63 225 q 533 778 219 407 q 542 781 536 781 q 560 773 550 781 q 571 756 571 765 l 571 240 q 589 224 571 221 q 685 260 608 228 q 710 253 703 268 q 700 229 717 238 z "},"5":{"ha":722,"x_min":69,"x_max":644,"o":"m 138 414 q 142 388 128 388 q 154 417 150 388 q 160 442 156 425 l 160 442 q 156 446 157 444 q 145 429 151 442 q 138 414 139 417 m 72 142 q 69 154 69 149 q 85 171 69 171 q 104 158 99 171 q 329 26 165 26 q 513 271 513 26 q 349 517 513 517 q 228 492 289 517 q 194 451 199 479 q 183 390 188 403 q 142 356 171 356 q 104 406 104 356 q 154 486 104 447 q 165 508 164 493 q 185 731 171 581 q 211 772 188 757 q 264 783 235 786 q 411 775 357 775 q 550 790 490 775 q 578 760 578 775 q 501 724 578 724 q 390 732 451 724 q 278 747 306 744 q 219 708 224 753 q 206 543 215 651 q 210 528 204 533 q 228 526 217 522 q 344 550 288 550 q 558 472 472 550 q 644 272 644 393 q 551 67 644 143 q 333 -4 464 -4 q 72 142 129 -4 z "},"6":{"ha":781,"x_min":74,"x_max":689,"o":"m 203 318 q 219 161 204 217 q 283 68 233 106 q 422 25 340 25 q 585 97 517 25 q 654 268 654 169 q 588 420 654 361 q 428 479 521 479 q 214 358 293 479 q 203 318 203 340 m 578 704 q 440 754 521 754 q 206 435 229 754 q 215 421 204 421 q 228 426 221 421 q 429 513 322 513 q 613 445 536 513 q 689 271 689 378 q 606 69 689 146 q 401 -8 522 -8 q 165 108 261 -8 q 74 371 74 219 q 168 664 74 544 q 436 790 269 790 q 603 736 535 790 q 611 706 621 721 q 597 694 604 694 q 578 704 589 694 z "},"7":{"ha":765,"x_min":69,"x_max":696,"o":"m 611 664 q 654 686 654 664 q 635 699 654 699 q 585 674 610 699 q 583 663 574 663 q 611 664 561 664 m 278 165 q 372 403 349 346 q 482 613 431 538 q 476 636 496 633 q 314 664 417 643 q 201 682 229 682 q 133 660 160 682 q 107 601 107 638 q 126 549 107 582 q 129 538 129 543 q 114 518 129 518 q 103 524 108 518 q 69 593 69 554 q 118 696 69 657 q 229 733 163 733 q 385 710 308 733 q 513 674 501 675 q 538 681 526 671 q 644 732 590 732 q 696 688 696 732 q 600 628 696 628 q 539 608 549 628 q 393 149 467 475 q 353 -32 381 93 q 315 -61 347 -58 q 273 -67 299 -62 q 240 -71 247 -71 q 211 -46 211 -71 q 278 165 211 -6 z "},"8":{"ha":771,"x_min":69,"x_max":693,"o":"m 196 401 q 211 418 211 408 q 201 433 211 426 q 118 596 118 500 q 206 743 118 682 q 381 799 286 799 q 553 750 481 799 q 632 611 632 697 q 540 461 632 519 q 533 449 533 457 q 540 436 533 440 q 693 229 693 351 q 592 53 693 119 q 374 -7 500 -7 q 160 46 240 -7 q 69 217 69 106 q 196 401 69 344 m 250 379 q 125 214 125 326 q 199 74 125 126 q 374 25 268 25 q 522 61 461 25 q 593 175 593 103 q 489 310 593 257 q 293 385 392 347 q 250 379 278 390 m 444 471 q 478 475 451 468 q 550 532 522 486 q 575 614 575 572 q 521 722 575 682 q 401 761 475 757 q 275 733 331 765 q 214 640 214 699 q 296 529 214 571 q 444 471 371 500 z "},"9":{"ha":776,"x_min":78,"x_max":693,"o":"m 564 461 q 548 618 563 563 q 483 710 533 674 q 344 754 426 754 q 181 681 250 754 q 113 511 113 608 q 179 359 113 418 q 339 300 246 300 q 553 421 474 300 q 564 461 564 438 m 189 75 q 326 25 246 25 q 561 344 538 25 q 551 358 563 358 q 539 351 546 358 q 338 267 444 267 q 154 334 231 267 q 78 508 78 401 q 163 713 78 633 q 365 788 244 788 q 601 671 506 788 q 693 408 693 560 q 599 115 693 233 q 331 -11 497 -11 q 164 43 232 -11 q 156 74 146 57 q 169 85 163 85 q 189 75 178 85 z "}," ":{"ha":281,"x_min":0,"x_max":0,"o":""},"!":{"ha":339,"x_min":76,"x_max":217,"o":"m 79 69 q 99 117 79 97 q 149 138 119 138 q 197 117 176 138 q 217 69 217 97 q 197 20 217 40 q 149 0 176 0 q 99 20 119 0 q 79 69 79 40 m 144 839 q 213 804 213 839 q 204 751 213 800 q 189 644 194 692 q 164 233 164 440 q 146 200 164 200 q 129 233 129 200 q 99 651 129 401 q 83 757 93 700 q 76 804 76 803 q 144 839 76 839 z "},"\"":{"ha":468,"x_min":86,"x_max":285,"o":"m 222 990 q 230 1013 219 1003 q 253 1024 240 1024 q 285 993 288 1024 q 258 838 274 915 q 253 829 256 828 q 249 838 250 829 q 222 990 244 865 m 86 990 q 94 1013 83 1003 q 117 1024 104 1024 q 149 993 151 1024 q 122 838 138 915 q 117 829 119 828 q 113 838 114 829 q 86 990 108 865 z "},"#":{"ha":864,"x_min":69,"x_max":781,"o":"m 518 486 l 357 486 q 331 467 333 486 l 299 304 q 314 282 293 282 l 474 282 q 507 304 501 282 l 539 467 q 518 486 542 486 m 781 504 q 771 486 781 489 q 746 486 768 486 l 597 486 q 578 469 581 486 l 544 304 q 567 282 540 282 l 693 282 q 718 281 714 282 q 728 263 728 278 q 723 247 728 250 q 693 244 718 244 l 558 244 q 529 224 532 244 l 490 32 q 481 -1 485 6 q 465 -3 476 -7 q 451 3 451 1 q 453 32 447 8 l 489 219 q 467 244 494 244 l 315 244 q 281 219 286 244 l 244 33 q 235 1 239 7 q 218 -1 231 -4 q 204 6 206 3 q 206 35 201 11 l 243 219 q 222 244 247 244 l 104 244 q 79 244 83 244 q 69 263 69 247 q 79 281 69 278 q 104 282 83 282 l 232 282 q 260 304 256 282 l 292 468 q 271 486 296 486 l 157 486 q 132 486 136 486 q 122 504 122 489 q 132 522 122 519 q 157 524 136 524 l 278 524 q 307 546 303 524 l 339 706 q 349 738 344 732 q 365 740 353 743 q 379 733 378 736 q 378 704 382 728 l 346 546 q 360 524 342 524 l 529 524 q 554 544 550 524 l 586 703 q 595 735 590 729 q 611 738 600 742 q 625 732 624 733 q 624 703 628 726 l 592 543 q 608 524 588 524 l 746 524 q 771 522 767 524 q 781 504 781 519 z "},"$":{"ha":775,"x_min":78,"x_max":686,"o":"m 307 747 q 206 640 206 718 q 288 531 206 569 q 321 546 318 515 l 332 718 q 325 744 333 738 q 307 747 317 750 m 411 761 q 380 752 386 761 q 372 721 374 743 l 358 542 q 367 504 357 514 q 394 492 371 500 q 422 485 414 485 q 444 517 442 485 l 458 717 q 411 761 461 761 m 479 42 q 606 176 600 78 q 507 303 610 257 q 481 311 488 311 q 465 282 468 311 l 451 69 q 457 40 449 46 q 479 42 463 36 m 371 26 q 401 33 393 26 q 413 64 410 39 l 428 292 q 419 333 431 322 q 386 350 415 339 q 365 356 372 356 q 343 314 346 356 l 325 67 q 333 31 324 38 q 371 26 339 26 m 78 211 q 100 244 78 244 q 119 208 119 244 q 242 49 119 94 q 269 40 261 40 q 288 67 285 40 l 306 340 q 294 382 308 368 q 267 399 289 388 q 126 590 126 467 q 296 779 126 728 q 340 826 338 793 l 346 915 q 352 944 349 940 q 368 949 356 949 q 383 943 381 949 q 385 913 386 938 l 379 831 q 417 797 376 797 q 457 802 450 797 q 465 826 464 807 l 472 915 q 477 944 474 940 q 493 949 481 949 q 508 943 506 949 q 510 913 511 938 l 503 814 q 531 768 501 785 q 624 678 593 735 q 615 646 636 653 q 590 656 599 640 q 529 725 568 697 q 513 731 519 731 q 494 704 497 731 l 481 504 q 486 461 479 472 q 513 446 490 456 q 686 221 694 363 q 623 85 682 144 q 479 6 564 26 q 443 -35 446 -4 l 433 -175 q 428 -204 432 -200 q 413 -208 425 -208 q 397 -202 400 -207 q 396 -172 394 -197 l 404 -40 q 401 -13 407 -18 q 371 -8 394 -8 q 329 -11 335 -8 q 318 -44 319 -17 l 308 -175 q 303 -204 307 -200 q 286 -208 300 -208 q 272 -203 275 -208 q 271 -172 268 -197 l 279 -35 q 271 -1 282 -11 q 242 11 265 3 q 78 211 78 64 z "},"%":{"ha":904,"x_min":67,"x_max":796,"o":"m 408 218 q 467 388 408 317 q 610 458 526 458 q 750 386 700 458 q 796 222 796 322 q 751 54 796 121 q 608 -19 700 -19 q 454 60 510 -19 q 408 218 408 128 m 486 211 q 611 -1 486 -1 q 735 69 690 -1 q 772 221 772 131 q 738 365 772 306 q 626 435 696 435 q 486 211 486 435 m 67 715 q 126 883 67 813 q 268 954 186 954 q 410 883 360 954 q 456 719 456 818 q 410 551 456 618 q 268 476 360 476 q 114 557 169 476 q 67 715 67 624 m 146 707 q 271 496 146 496 q 393 565 350 496 q 432 718 432 628 q 397 863 432 801 q 285 931 356 931 q 146 707 146 931 m 200 -10 q 189 3 189 -4 q 199 29 189 10 l 638 921 q 649 942 647 940 q 669 943 657 950 q 682 931 682 938 q 672 904 682 924 l 233 13 q 221 -8 224 -7 q 200 -10 214 -17 z "},"&":{"ha":972,"x_min":81,"x_max":883,"o":"m 585 190 q 343 485 447 336 q 304 492 329 506 q 128 233 128 394 q 191 78 128 139 q 351 17 254 17 q 494 56 435 17 q 588 153 540 86 q 585 190 601 172 m 464 608 q 590 794 590 681 q 543 896 590 854 q 433 938 496 938 q 357 903 389 938 q 325 822 325 868 q 343 736 325 776 q 389 658 353 717 q 440 600 425 600 q 464 608 450 600 m 776 4 q 646 126 711 61 q 615 125 629 143 q 344 -18 506 -18 q 155 58 229 -18 q 81 246 81 135 q 276 519 81 410 q 296 542 296 531 q 275 589 296 554 q 210 772 210 696 q 272 919 210 858 q 422 979 335 979 q 568 926 506 979 q 631 794 631 874 q 472 574 631 664 q 469 540 453 563 q 660 308 556 424 q 676 299 669 299 q 699 315 685 299 q 767 406 732 360 q 835 475 801 451 q 865 475 853 488 q 857 439 881 460 q 732 294 797 386 q 715 260 715 271 q 726 238 715 249 q 871 101 811 150 q 883 82 883 92 q 849 36 883 75 q 794 -3 814 -3 q 776 4 785 -3 z "},"'":{"ha":468,"x_min":86,"x_max":149,"o":"m 86 990 q 94 1013 83 1003 q 117 1024 104 1024 q 149 993 151 1024 q 122 838 138 915 q 117 829 119 828 q 113 838 114 829 q 86 990 108 865 z "},"(":{"ha":493,"x_min":78,"x_max":528,"o":"m 78 369 q 175 17 74 165 q 469 -189 281 -139 q 499 -193 489 -193 q 508 -183 515 -193 q 483 -167 503 -175 q 278 42 338 -104 q 235 350 231 158 q 288 693 238 565 q 500 919 351 858 q 528 939 528 931 q 507 949 528 949 q 490 946 499 949 q 200 733 314 888 q 78 369 82 572 z "},")":{"ha":661,"x_min":69,"x_max":519,"o":"m 519 369 q 421 17 522 165 q 128 -189 317 -139 q 99 -193 108 -193 q 89 -183 82 -193 q 113 -167 94 -175 q 319 42 260 -104 q 363 350 365 158 q 310 693 358 565 q 97 919 246 858 q 69 939 69 931 q 89 949 69 949 q 106 946 99 949 q 397 733 282 888 q 519 369 515 572 z "},"*":{"ha":525,"x_min":63,"x_max":379,"o":"m 338 379 q 379 440 379 404 q 364 478 379 463 q 324 493 349 493 q 279 481 303 493 q 221 554 279 554 q 163 481 163 554 q 118 493 139 493 q 78 478 93 493 q 63 440 63 463 q 104 379 63 404 q 63 318 63 354 q 78 281 63 296 q 118 265 93 265 q 163 278 139 265 q 221 204 163 204 q 279 278 279 204 q 324 265 303 265 q 364 281 349 265 q 379 318 379 296 q 338 379 379 354 z "},"+":{"ha":532,"x_min":54,"x_max":369,"o":"m 369 201 q 335 169 369 169 l 244 169 l 244 74 q 211 39 244 39 q 179 74 179 39 l 179 169 l 89 169 q 54 201 54 169 q 89 235 54 235 l 179 235 l 179 319 q 211 354 179 354 q 244 319 244 354 l 244 235 l 335 235 q 369 201 369 235 z "},",":{"ha":383,"x_min":76,"x_max":229,"o":"m 94 -124 q 181 -21 168 -71 q 165 0 185 -3 q 146 0 165 0 q 97 20 117 0 q 76 69 76 40 q 97 117 76 97 q 146 138 117 138 q 201 111 176 138 q 229 39 229 81 q 192 -74 229 -25 q 119 -146 178 -93 q 101 -154 111 -154 q 86 -139 86 -154 q 94 -124 86 -131 z "},"-":{"ha":532,"x_min":54,"x_max":369,"o":"m 369 201 q 335 154 369 154 l 89 154 q 54 201 54 154 q 89 250 54 250 l 335 250 q 369 201 369 250 z "},".":{"ha":372,"x_min":79,"x_max":217,"o":"m 79 69 q 99 117 79 97 q 149 138 119 138 q 197 117 176 138 q 217 69 217 97 q 197 20 217 40 q 149 0 176 0 q 99 20 119 0 q 79 69 79 40 z "},"/":{"ha":1051,"x_min":10,"x_max":964,"o":"m 433 472 q 585 799 514 694 q 864 972 703 972 q 951 951 922 972 q 964 932 964 943 q 940 913 964 913 q 922 917 932 913 q 874 926 899 926 q 738 851 794 926 q 653 674 694 793 q 586 464 619 568 q 96 -21 422 -21 q 19 0 53 -21 q 10 14 10 6 q 31 32 10 32 q 44 28 38 32 q 100 18 63 18 q 261 92 193 18 q 361 267 314 150 q 433 472 397 369 z "},":":{"ha":365,"x_min":79,"x_max":217,"o":"m 79 69 q 99 117 79 97 q 149 138 119 138 q 197 117 176 138 q 217 69 217 97 q 197 20 217 40 q 149 0 176 0 q 99 20 119 0 q 79 69 79 40 m 79 328 q 99 376 79 356 q 149 396 119 396 q 197 376 176 396 q 217 328 217 356 q 197 278 217 299 q 149 258 176 258 q 99 278 119 258 q 79 328 79 299 z "},";":{"ha":356,"x_min":76,"x_max":229,"o":"m 94 -124 q 181 -21 168 -71 q 165 0 185 -3 q 146 0 165 0 q 97 20 117 0 q 76 69 76 40 q 97 117 76 97 q 146 138 117 138 q 201 111 176 138 q 229 39 229 81 q 192 -74 229 -25 q 119 -146 178 -93 q 101 -154 111 -154 q 86 -139 86 -154 q 94 -124 86 -131 m 79 328 q 99 376 79 356 q 149 396 119 396 q 197 376 176 396 q 217 328 217 356 q 197 278 217 299 q 149 258 176 258 q 99 278 119 258 q 79 328 79 299 z "},"<":{"ha":507,"x_min":83,"x_max":394,"o":"m 342 611 q 368 625 358 625 q 385 614 375 625 q 394 597 394 603 q 376 572 394 588 l 156 388 q 146 376 146 379 q 157 365 146 375 l 376 182 q 394 157 394 167 q 385 140 394 151 q 367 129 375 129 q 340 143 357 129 l 88 356 q 83 394 64 375 q 342 611 94 404 z "},"=":{"ha":532,"x_min":54,"x_max":369,"o":"m 369 340 q 365 332 367 336 q 335 308 356 308 l 89 308 q 54 340 54 308 q 89 374 54 374 l 335 374 q 360 361 350 374 q 368 342 365 353 q 369 340 369 336 m 369 178 q 335 146 369 146 l 89 146 q 54 178 54 146 q 89 211 54 211 l 335 211 q 369 178 369 211 z "},">":{"ha":507,"x_min":126,"x_max":438,"o":"m 179 611 q 153 625 163 625 q 136 614 146 625 q 126 597 126 603 q 144 572 126 588 l 365 388 q 375 376 375 379 q 364 365 375 375 l 144 182 q 126 157 126 167 q 136 140 126 151 q 154 129 146 129 q 181 143 164 129 l 433 356 q 438 394 457 375 q 179 611 426 404 z "},"?":{"ha":554,"x_min":36,"x_max":463,"o":"m 158 69 q 178 117 158 97 q 228 138 199 138 q 276 117 256 138 q 296 69 296 97 q 276 20 296 40 q 228 0 256 0 q 178 20 199 0 q 158 69 158 40 m 463 635 q 404 485 463 561 q 296 367 350 426 q 238 249 238 300 q 244 231 238 250 q 247 218 247 224 q 233 203 247 203 q 213 210 225 203 q 201 258 201 217 q 239 353 201 294 q 310 468 296 439 q 347 639 347 549 q 236 797 347 797 q 143 765 188 797 q 90 713 108 742 q 83 679 92 699 q 58 660 75 660 q 36 682 36 660 q 42 703 36 692 q 236 835 101 835 q 397 780 332 835 q 463 635 463 725 z "},"@":{"ha":1028,"x_min":43,"x_max":928,"o":"m 465 625 q 358 572 401 625 q 315 453 315 519 q 351 340 315 388 q 460 290 393 290 q 567 350 503 290 l 567 574 q 465 625 526 625 m 568 303 q 451 253 526 253 q 326 310 376 253 q 276 443 276 367 q 331 597 276 535 q 471 660 385 660 q 567 628 524 660 l 567 629 q 583 657 567 651 q 619 660 590 660 q 654 657 647 660 q 672 629 672 651 l 672 314 q 724 260 672 260 q 846 346 800 260 q 886 525 886 422 q 765 763 886 657 q 485 868 644 868 q 201 745 322 868 q 79 461 79 622 q 199 185 79 308 q 485 56 321 56 l 772 57 l 796 19 l 485 19 q 172 149 301 19 q 43 463 43 279 q 172 774 43 644 q 485 904 301 904 q 799 795 669 904 q 928 525 928 686 q 872 303 928 399 q 718 197 811 200 q 568 303 599 193 z "},"A":{"ha":1026,"x_min":63,"x_max":903,"o":"m 603 378 q 451 742 525 567 q 433 760 444 760 q 418 742 425 760 q 258 378 365 622 q 263 367 253 367 l 599 367 q 603 378 607 367 m 743 33 l 626 319 q 613 329 624 329 l 246 329 q 232 319 236 329 q 100 14 160 153 q 83 1 96 1 q 63 24 63 1 q 65 33 63 28 q 190 321 104 124 q 182 329 193 329 l 121 329 q 97 329 100 329 q 86 347 88 332 q 97 365 86 363 q 121 367 100 367 l 194 367 q 215 378 210 367 l 458 938 q 488 961 469 961 q 513 943 506 961 l 899 40 q 903 25 903 32 q 831 0 903 -1 q 743 33 756 1 z "},"B":{"ha":858,"x_min":69,"x_max":719,"o":"m 258 953 q 497 901 404 953 q 610 718 610 840 q 568 582 610 640 q 578 560 560 571 q 719 328 719 469 q 568 60 719 138 q 214 0 450 0 l 146 0 q 69 35 69 0 l 69 919 q 146 954 69 954 q 201 953 161 954 q 258 953 239 953 m 489 569 q 403 588 433 588 q 325 558 325 588 q 406 529 325 529 q 492 550 465 529 q 489 569 507 563 m 238 35 l 279 35 q 686 314 686 35 q 554 538 686 454 q 524 533 540 546 q 411 499 476 499 q 285 558 285 499 q 406 618 285 618 q 504 597 451 618 q 544 606 533 586 q 574 708 574 658 q 239 919 574 919 q 222 907 222 919 l 222 46 q 238 35 222 35 z "},"C":{"ha":1035,"x_min":60,"x_max":933,"o":"m 915 185 q 758 38 853 90 q 538 -21 657 -21 q 192 113 324 -21 q 60 458 60 246 q 198 814 60 664 q 538 964 336 964 q 876 818 764 964 q 892 793 892 797 q 874 772 892 772 q 849 789 864 772 q 554 933 714 933 q 294 786 383 933 q 218 458 218 660 q 300 138 218 253 q 551 17 386 17 q 741 70 653 17 q 886 218 829 124 q 904 238 897 238 q 918 232 910 238 q 933 219 933 221 q 915 185 933 213 z "},"D":{"ha":954,"x_min":69,"x_max":843,"o":"m 222 892 l 222 61 q 242 42 222 42 l 347 42 q 661 160 526 42 q 804 472 804 285 q 672 792 804 661 q 369 919 546 917 q 235 911 274 921 q 222 892 222 908 m 146 0 q 69 35 69 0 l 69 919 q 146 954 69 954 l 372 954 q 713 818 582 954 q 843 475 843 682 q 686 126 843 261 q 324 0 538 0 l 146 0 z "},"E":{"ha":753,"x_min":69,"x_max":635,"o":"m 246 654 l 600 654 q 625 653 621 654 q 635 635 635 650 q 625 617 635 619 q 600 615 622 615 l 243 615 q 222 597 222 615 l 222 54 q 239 40 222 40 l 574 40 q 603 36 599 40 q 608 19 608 32 q 599 1 608 4 q 574 0 596 0 l 146 0 q 69 35 69 0 l 69 919 q 146 954 69 954 l 553 954 q 578 953 574 954 q 588 935 588 950 q 578 917 588 919 q 553 917 575 917 l 243 917 q 222 897 222 917 l 222 675 q 246 654 222 654 z "},"F":{"ha":683,"x_min":69,"x_max":635,"o":"m 246 654 l 600 654 q 625 653 621 654 q 635 635 635 650 q 625 617 635 619 q 600 615 622 615 l 243 615 q 222 597 222 615 l 222 35 q 146 0 222 0 q 69 35 69 0 l 69 919 q 146 954 69 954 l 553 954 q 578 953 574 954 q 588 935 588 950 q 578 917 588 919 q 553 917 575 917 l 243 917 q 222 897 222 917 l 222 675 q 246 654 222 654 z "},"G":{"ha":1071,"x_min":60,"x_max":983,"o":"m 913 269 q 878 285 913 285 l 543 285 q 511 339 511 285 q 539 390 511 390 l 936 390 q 983 365 988 390 q 832 88 954 196 q 538 -21 710 -21 q 192 113 324 -21 q 60 458 60 246 q 198 814 60 664 q 538 964 336 964 q 876 818 764 964 q 892 793 892 797 q 874 772 892 772 q 849 789 864 772 q 554 933 714 933 q 294 786 383 933 q 218 458 218 660 q 300 138 218 253 q 551 17 386 17 q 776 90 654 17 q 913 269 913 174 z "},"H":{"ha":872,"x_min":69,"x_max":747,"o":"m 728 0 q 710 10 713 0 q 708 35 708 13 l 708 560 q 692 575 708 575 l 236 575 q 222 563 222 575 l 222 35 q 146 0 222 0 q 69 35 69 0 l 69 919 q 146 954 69 954 q 222 919 222 954 l 222 625 q 236 613 222 613 l 693 613 q 708 628 708 613 l 708 919 q 710 944 708 940 q 728 954 713 954 q 746 944 743 954 q 747 919 747 940 l 747 35 q 746 10 747 14 q 728 0 743 0 z "},"I":{"ha":347,"x_min":69,"x_max":222,"o":"m 146 0 q 69 35 69 0 l 69 919 q 146 954 69 954 q 222 919 222 954 l 222 35 q 146 0 222 0 z "},"J":{"ha":707,"x_min":43,"x_max":582,"o":"m 275 -31 q 115 24 182 -31 q 43 165 43 81 q 58 233 43 201 q 94 264 72 264 q 119 236 119 264 q 96 206 119 214 q 88 150 88 190 q 144 44 88 86 q 269 7 197 7 q 386 56 343 7 q 429 196 429 104 l 429 919 q 506 954 429 954 q 582 919 582 954 l 582 317 q 502 61 582 153 q 275 -31 422 -31 z "},"K":{"ha":888,"x_min":69,"x_max":764,"o":"m 249 615 l 647 939 q 674 956 667 956 q 685 947 678 956 q 693 933 693 938 q 671 910 693 926 l 385 676 q 376 643 365 661 l 750 39 q 764 11 764 18 q 754 0 764 6 q 740 -6 744 -6 q 718 19 733 -6 l 343 624 q 324 628 335 638 l 240 560 q 222 526 222 546 l 222 35 q 146 0 222 0 q 69 35 69 0 l 69 919 q 146 954 69 954 q 222 919 222 954 l 222 632 q 235 610 222 610 q 249 615 240 610 z "},"L":{"ha":657,"x_min":69,"x_max":607,"o":"m 222 919 q 146 954 222 954 q 69 919 69 954 l 69 35 q 146 0 69 0 l 572 0 q 597 1 593 0 q 607 19 607 4 q 597 38 607 35 q 572 39 594 39 l 243 39 q 222 57 222 39 l 222 919 z "},"M":{"ha":1156,"x_min":71,"x_max":999,"o":"m 147 588 q 465 28 311 292 q 486 11 475 11 q 504 25 496 11 q 824 621 521 56 q 838 635 831 635 q 846 614 846 635 l 846 35 q 922 0 846 0 q 999 35 999 0 l 999 919 q 975 957 999 957 q 946 936 957 957 l 556 211 q 539 196 547 196 q 521 213 529 196 q 126 931 397 433 q 90 954 110 960 q 73 946 75 950 q 71 919 71 942 l 71 35 q 72 10 71 13 q 90 0 75 0 q 108 10 106 0 q 110 35 110 14 l 110 579 q 125 604 110 604 q 147 588 138 604 z "},"N":{"ha":914,"x_min":69,"x_max":756,"o":"m 121 942 q 688 599 315 822 q 708 588 706 588 q 718 617 718 588 l 718 919 q 718 944 718 940 q 736 954 721 954 q 754 944 751 954 q 756 919 756 940 l 756 35 q 754 10 756 14 q 736 0 751 0 q 718 10 721 0 q 718 35 718 13 l 718 388 q 700 421 718 410 q 146 753 546 518 q 122 761 132 761 q 108 742 108 761 l 108 35 q 107 10 108 14 q 89 0 104 0 q 71 10 74 0 q 69 35 69 13 l 69 919 q 71 944 69 940 q 89 954 74 954 q 121 942 101 954 z "},"O":{"ha":1110,"x_min":60,"x_max":994,"o":"m 60 458 q 198 814 60 664 q 538 964 336 964 q 871 824 747 964 q 994 461 994 683 q 867 124 994 260 q 538 -12 739 -12 q 191 117 322 -12 q 60 458 60 247 m 218 458 q 300 138 218 253 q 551 17 386 17 q 838 149 719 17 q 956 458 956 281 q 849 789 956 653 q 554 933 735 933 q 294 786 383 933 q 218 458 218 660 z "},"P":{"ha":861,"x_min":69,"x_max":763,"o":"m 222 881 l 222 249 q 251 232 228 236 q 333 225 296 224 q 600 307 492 228 q 719 542 719 394 q 666 728 719 646 q 521 857 613 810 q 269 910 418 910 q 225 908 228 910 q 222 881 222 907 m 222 35 q 146 0 222 0 q 69 35 69 0 l 69 919 q 146 954 69 954 q 179 953 165 954 q 290 949 264 950 q 431 931 368 943 q 653 814 560 906 q 763 553 763 707 q 640 283 763 386 q 357 183 526 188 q 256 193 306 182 q 231 189 240 196 q 222 164 221 182 l 222 35 z "},"Q":{"ha":1110,"x_min":60,"x_max":994,"o":"m 218 458 q 300 138 218 253 q 551 17 386 17 q 838 149 719 17 q 956 458 956 281 q 849 789 956 653 q 554 933 735 933 q 294 786 383 933 q 218 458 218 660 m 957 -157 q 988 -161 982 -150 q 975 -189 999 -182 q 914 -199 942 -199 q 797 -171 851 -197 q 708 -112 771 -157 q 635 -68 669 -85 q 449 -6 540 -24 q 165 146 269 21 q 60 458 60 271 q 198 814 60 664 q 538 964 336 964 q 871 824 747 964 q 994 461 994 683 q 895 158 994 286 q 633 -3 796 29 q 621 -12 621 -6 q 629 -24 619 -19 q 736 -86 703 -60 q 913 -164 836 -164 q 957 -157 932 -164 z "},"R":{"ha":875,"x_min":69,"x_max":776,"o":"m 494 249 q 650 353 590 283 q 719 542 719 435 q 666 728 719 646 q 521 857 613 810 q 269 910 418 910 q 222 882 222 910 l 222 35 q 146 0 222 0 q 69 35 69 0 l 69 919 q 146 954 69 954 q 179 953 165 954 q 290 949 264 950 q 431 931 368 943 q 653 814 560 906 q 763 553 763 707 q 689 338 763 431 q 517 215 622 254 q 513 199 504 210 q 733 24 639 24 q 776 8 776 24 q 736 -14 776 -14 q 539 96 636 -14 q 475 186 515 122 q 453 197 467 200 q 383 190 418 190 q 294 219 338 190 q 251 285 251 249 q 276 331 251 314 q 332 349 300 349 q 468 258 400 349 q 494 249 479 244 m 290 282 q 318 244 290 260 q 376 228 346 228 q 431 232 403 228 q 435 246 443 235 q 332 310 386 310 q 290 282 290 310 z "},"S":{"ha":822,"x_min":69,"x_max":711,"o":"m 108 207 q 88 229 107 229 q 69 201 68 229 q 160 49 75 110 q 365 -12 246 -12 q 607 60 513 -12 q 711 276 711 138 q 636 449 711 375 q 465 565 590 496 q 340 647 372 617 q 282 775 282 703 q 349 892 282 849 q 494 932 410 932 q 553 918 514 932 q 583 936 578 910 q 567 954 586 950 q 506 964 532 963 q 283 899 379 971 q 183 704 183 822 q 260 532 183 601 q 411 431 279 514 q 539 342 513 367 q 596 214 596 288 q 524 72 596 124 q 364 25 458 25 q 192 75 267 25 q 108 207 113 126 z "},"T":{"ha":838,"x_min":85,"x_max":751,"o":"m 717 917 l 494 917 l 494 35 q 418 0 494 0 q 342 35 342 0 l 342 917 l 119 917 q 94 917 99 917 q 85 935 85 919 q 94 953 85 950 q 119 954 99 954 l 717 954 q 751 939 751 954 q 717 917 751 917 z "},"U":{"ha":946,"x_min":69,"x_max":821,"o":"m 486 32 q 706 149 626 32 q 779 429 779 257 l 779 931 q 797 953 779 950 q 821 928 821 956 l 821 450 q 729 115 821 233 q 447 -10 632 -10 q 126 169 221 -10 q 69 418 69 278 l 69 919 q 146 954 69 954 q 222 919 222 954 l 222 360 q 261 150 222 224 q 486 32 322 32 z "},"V":{"ha":1022,"x_min":60,"x_max":900,"o":"m 511 215 q 528 197 518 197 q 544 215 538 197 l 861 943 q 878 956 867 956 q 900 933 900 956 q 897 924 900 929 q 503 19 765 622 q 475 -4 493 -4 q 449 14 457 -4 q 64 917 417 89 q 60 932 60 925 q 131 957 60 958 q 219 924 206 956 q 511 215 390 500 z "},"W":{"ha":1344,"x_min":60,"x_max":1218,"o":"m 857 239 q 874 222 864 222 q 890 239 883 222 l 1181 943 q 1197 956 1186 956 q 1218 933 1218 956 q 1217 924 1218 928 q 851 19 1078 569 q 822 -4 842 -4 q 797 14 804 -4 l 647 376 q 632 376 640 396 l 486 19 q 457 -4 476 -4 q 432 14 439 -4 l 63 917 q 60 932 60 925 q 131 957 60 958 q 218 924 206 956 q 492 239 308 699 q 508 222 499 222 q 525 239 518 222 l 608 439 q 606 478 615 457 q 428 917 496 746 q 425 932 425 925 q 496 957 425 958 q 583 924 571 956 l 681 682 q 693 669 686 669 q 708 682 703 669 l 815 943 q 832 956 821 956 q 853 933 853 956 q 851 924 853 928 q 725 607 792 769 q 725 569 718 588 l 857 239 z "},"X":{"ha":917,"x_min":71,"x_max":821,"o":"m 767 954 q 782 946 782 954 q 774 926 782 939 q 510 533 693 806 q 511 507 503 522 q 817 25 694 213 q 821 13 821 17 q 738 0 821 0 q 682 1 689 0 q 649 25 661 6 l 418 388 q 394 386 407 406 l 149 24 q 111 0 132 -1 q 93 6 93 0 q 101 25 93 11 l 374 426 q 374 458 383 442 l 75 928 q 71 938 71 933 q 151 956 71 956 q 210 953 199 956 q 251 925 236 949 q 468 578 300 849 q 492 578 479 558 q 722 924 579 710 q 767 954 743 954 z "},"Y":{"ha":969,"x_min":58,"x_max":858,"o":"m 560 278 l 560 35 q 483 0 560 0 q 407 35 407 0 l 407 240 q 394 283 404 254 q 78 903 219 617 q 65 919 76 907 q 58 936 58 928 q 121 958 58 958 q 182 958 182 958 q 225 932 214 954 q 508 376 311 763 q 528 358 518 358 q 549 379 539 358 l 814 943 q 843 958 824 963 q 858 946 853 956 q 858 925 863 935 q 569 322 735 671 q 560 278 560 301 z "},"Z":{"ha":851,"x_min":69,"x_max":739,"o":"m 544 872 q 81 50 392 603 q 69 19 69 29 q 100 0 69 0 l 711 0 q 739 15 735 0 q 701 38 746 38 l 258 38 q 240 46 240 38 q 247 65 240 53 q 719 903 379 306 q 731 935 731 922 q 696 954 731 954 l 164 954 q 132 932 132 954 q 163 911 132 911 l 522 911 q 554 897 554 911 q 544 872 554 890 z "},"[":{"ha":450,"x_min":69,"x_max":356,"o":"m 222 54 q 239 40 222 40 q 339 40 360 40 q 321 40 318 40 q 351 36 346 40 q 356 19 356 32 q 346 1 356 4 q 321 0 343 0 q 146 0 186 0 q 69 35 69 0 l 69 919 q 146 954 69 954 l 321 954 q 346 953 342 954 q 356 935 356 950 q 346 917 356 919 q 321 917 343 917 l 243 917 q 222 897 222 917 l 222 54 z "},"\\":{"ha":1089,"x_min":63,"x_max":1017,"o":"m 593 472 q 442 799 513 694 q 163 972 324 972 q 75 951 106 972 q 63 932 63 943 q 86 913 63 913 q 104 917 94 913 q 153 926 128 926 q 289 851 232 926 q 374 674 333 793 q 440 464 407 568 q 931 -21 606 -21 q 1007 0 975 -21 q 1017 14 1017 6 q 996 32 1017 32 q 982 28 989 32 q 926 18 965 18 q 765 92 833 18 q 667 267 713 150 q 593 472 631 369 z "},"]":{"ha":517,"x_min":72,"x_max":358,"o":"m 206 54 q 189 40 206 40 l 107 40 q 77 36 82 40 q 72 19 72 32 q 82 1 72 4 q 107 0 85 0 q 282 0 242 0 q 358 35 358 0 l 358 919 q 282 954 358 954 l 107 954 q 82 953 86 954 q 72 935 72 950 q 82 917 72 919 q 107 917 85 917 l 185 917 q 206 897 206 917 l 206 54 z "},"^":{"ha":529,"x_min":111,"x_max":408,"o":"m 304 579 l 390 485 q 408 458 408 465 q 400 447 408 454 q 388 439 392 439 q 363 460 381 439 l 276 554 q 261 558 271 558 q 244 554 250 560 l 157 460 q 131 439 138 439 q 119 447 126 439 q 111 458 111 454 q 129 485 111 465 l 217 579 q 261 599 235 599 q 304 579 286 599 z "},"_":{"ha":532,"x_min":10,"x_max":515,"o":"m 515 -93 q 481 -142 515 -142 l 44 -142 q 10 -93 10 -142 q 44 -44 10 -44 l 481 -44 q 515 -93 515 -44 z "},"`":{"ha":1389,"x_min":217,"x_max":308,"o":"m 260 624 q 224 632 249 647 q 217 597 200 618 q 301 506 257 550 q 308 501 307 500 q 307 510 310 503 q 260 624 299 529 z "},"a":{"ha":553,"x_min":69,"x_max":465,"o":"m 258 342 q 151 293 194 342 q 108 179 108 244 q 147 72 108 115 q 253 28 186 28 q 360 75 324 28 l 360 290 q 258 342 321 342 m 264 376 q 360 344 317 376 l 360 346 q 378 374 360 368 q 413 376 383 376 q 447 374 440 376 q 465 346 465 368 l 465 31 q 447 3 465 8 q 413 0 440 0 q 378 3 383 0 q 360 31 360 8 q 244 -10 311 -10 q 119 42 168 -10 q 69 169 69 94 q 123 319 69 261 q 264 376 176 376 z "},"b":{"ha":526,"x_min":69,"x_max":464,"o":"m 175 293 l 175 86 q 281 28 199 28 q 385 77 346 28 q 425 199 425 126 q 384 306 425 263 q 292 349 343 349 q 175 293 204 349 m 122 0 q 88 3 93 0 q 69 31 69 8 l 69 931 q 88 958 69 953 q 122 961 93 961 q 157 958 150 961 q 175 931 175 953 l 175 378 q 196 360 175 350 q 294 381 238 381 q 415 327 365 381 q 464 200 464 274 q 414 57 464 115 q 275 -6 360 -6 q 183 24 219 -6 q 175 15 175 31 q 122 0 175 0 z "},"c":{"ha":440,"x_min":58,"x_max":367,"o":"m 58 186 q 117 326 58 268 q 260 383 175 383 q 360 339 310 383 q 367 322 367 332 q 356 310 367 310 q 343 314 350 310 q 260 349 288 349 q 176 314 197 349 q 167 186 167 267 q 176 58 167 106 q 260 24 197 24 q 343 58 288 24 q 356 63 350 63 q 367 50 367 63 q 360 33 367 40 q 260 -11 310 -11 q 117 47 175 -11 q 58 186 58 104 z "},"d":{"ha":546,"x_min":71,"x_max":465,"o":"m 360 293 l 360 86 q 254 28 336 28 q 149 77 189 28 q 110 199 110 126 q 151 306 110 263 q 243 349 192 349 q 360 293 331 349 m 413 0 q 447 3 442 0 q 465 31 465 8 l 465 931 q 447 958 465 953 q 413 961 442 961 q 378 958 385 961 q 360 931 360 953 l 360 378 q 339 360 360 350 q 240 381 297 381 q 120 327 169 381 q 71 200 71 274 q 121 57 71 115 q 260 -6 175 -6 q 351 24 315 -6 q 360 15 360 31 q 413 0 360 0 z "},"e":{"ha":463,"x_min":39,"x_max":388,"o":"m 219 178 q 307 205 268 178 q 346 275 346 232 q 250 349 346 349 q 157 310 181 349 q 147 213 149 274 q 175 186 146 196 q 219 178 199 178 m 214 147 q 192 147 203 147 q 161 140 175 149 q 149 114 147 131 q 157 54 151 78 q 192 28 169 33 q 239 25 201 25 q 336 56 286 25 q 349 60 343 60 q 360 47 360 60 q 353 31 360 38 q 239 -10 307 -10 q 97 45 154 -10 q 39 182 39 100 q 101 326 39 267 q 261 386 163 386 q 346 360 307 386 q 388 283 388 329 q 341 182 388 217 q 214 147 294 147 z "},"f":{"ha":350,"x_min":56,"x_max":353,"o":"m 221 825 l 221 489 q 243 472 221 472 q 260 472 247 472 q 283 472 274 472 q 315 451 315 472 q 283 433 315 433 q 260 433 274 433 q 243 433 247 433 q 221 411 221 433 l 221 31 q 203 3 221 8 q 168 0 196 0 q 133 3 140 0 q 115 31 115 8 l 115 413 q 90 433 115 433 q 65 433 69 433 q 56 451 56 436 q 65 469 56 467 q 92 471 69 471 q 115 489 115 471 l 115 728 q 157 882 115 814 q 282 961 204 961 q 344 939 322 961 q 353 922 353 931 q 336 907 353 907 q 319 911 328 907 q 282 922 297 922 q 221 825 221 922 z "},"g":{"ha":553,"x_min":67,"x_max":464,"o":"m 256 342 q 149 293 192 342 q 106 179 106 244 q 144 72 106 115 q 250 28 183 28 q 358 75 322 28 l 358 290 q 256 342 319 342 m 261 376 q 346 351 307 376 q 357 354 356 344 q 392 376 361 376 q 410 376 389 376 l 411 376 q 429 376 433 376 q 464 346 464 375 l 464 -56 q 418 -176 464 -118 q 308 -247 372 -233 q 278 -229 278 -254 q 289 -215 278 -221 q 358 -115 358 -183 l 358 19 q 340 18 357 29 q 242 -10 297 -10 q 116 42 165 -10 q 67 169 67 94 q 120 319 67 261 q 261 376 174 376 z "},"h":{"ha":524,"x_min":68,"x_max":444,"o":"m 444 258 l 444 31 q 426 3 444 8 q 392 0 419 0 q 357 3 363 0 q 339 31 339 8 l 339 301 q 319 340 339 332 q 279 344 310 344 q 211 318 249 344 q 174 271 174 292 l 174 31 q 156 3 174 8 q 121 0 149 0 q 86 3 92 0 q 68 31 68 8 l 68 931 q 86 958 68 953 q 121 961 92 961 q 156 958 149 961 q 174 931 174 953 l 174 358 q 194 347 175 335 q 306 385 253 385 q 403 348 361 385 q 444 258 444 311 z "},"i":{"ha":256,"x_min":68,"x_max":176,"o":"m 121 0 q 86 3 92 0 q 68 31 68 8 l 68 347 q 86 375 68 369 q 121 378 92 378 q 156 375 149 378 q 174 347 174 369 l 174 31 q 156 3 174 8 q 121 0 149 0 m 72 528 q 88 565 72 550 q 124 581 103 581 q 161 565 146 581 q 176 528 176 550 q 161 490 176 506 q 124 475 146 475 q 88 490 103 475 q 72 528 72 506 z "},"j":{"ha":254,"x_min":-11,"x_max":175,"o":"m 19 -247 q -11 -229 -11 -254 q 0 -215 -11 -221 q 69 -115 69 -183 l 69 346 q 86 374 69 368 q 122 376 93 376 q 157 374 150 376 q 175 346 175 368 l 175 -56 q 129 -176 175 -118 q 19 -247 83 -233 m 69 528 q 85 565 69 550 q 121 581 100 581 q 158 565 143 581 q 174 528 174 550 q 158 490 174 506 q 121 475 143 475 q 85 490 100 475 q 69 528 69 506 z "},"k":{"ha":474,"x_min":68,"x_max":403,"o":"m 394 0 q 389 -3 394 0 q 381 -7 385 -7 q 357 17 374 -7 l 218 203 q 203 207 210 213 l 182 190 q 174 171 174 183 l 174 31 q 156 3 174 8 q 121 0 149 0 q 86 3 92 0 q 68 31 68 8 l 68 931 q 86 958 68 953 q 121 961 92 961 q 156 958 149 961 q 174 931 174 953 l 174 249 q 185 242 174 232 l 324 357 q 351 375 344 375 q 363 366 356 375 q 369 353 369 357 q 349 328 369 346 l 247 244 q 247 226 239 238 l 388 39 q 403 13 403 18 q 394 0 403 7 z "},"l":{"ha":253,"x_min":68,"x_max":174,"o":"m 121 0 q 86 3 92 0 q 68 31 68 8 l 68 931 q 86 958 68 953 q 121 961 92 961 q 156 958 149 961 q 174 931 174 953 l 174 31 q 156 3 174 8 q 121 0 149 0 z "},"m":{"ha":768,"x_min":69,"x_max":688,"o":"m 432 258 l 432 31 q 414 3 432 8 q 379 0 407 0 q 344 3 350 0 q 326 31 326 8 l 326 301 q 313 340 326 332 q 276 344 304 344 q 210 318 246 344 q 175 271 175 292 l 175 31 q 157 3 175 8 q 122 0 150 0 q 88 3 93 0 q 69 31 69 8 l 69 350 q 88 378 69 372 q 122 381 93 381 q 157 378 150 381 q 175 350 175 372 q 194 349 175 336 q 303 385 251 385 q 401 340 364 385 q 438 349 424 340 q 549 385 494 385 q 650 351 613 385 q 688 258 688 318 l 688 31 q 669 3 688 8 q 635 0 663 0 q 600 3 606 0 q 582 31 582 8 l 582 301 q 533 350 582 350 q 467 330 501 350 q 429 283 433 310 q 432 258 432 271 z "},"n":{"ha":525,"x_min":69,"x_max":446,"o":"m 446 258 l 446 31 q 428 3 446 8 q 393 0 421 0 q 358 3 364 0 q 340 31 340 8 l 340 301 q 321 340 340 332 q 281 344 311 344 q 213 318 250 344 q 175 271 175 292 l 175 31 q 157 3 175 8 q 122 0 150 0 q 88 3 93 0 q 69 31 69 8 l 69 350 q 88 378 69 372 q 122 381 93 381 q 157 378 150 381 q 175 350 175 372 q 178 338 175 338 q 196 347 181 338 q 307 385 254 385 q 404 348 363 385 q 446 258 446 311 z "},"o":{"ha":536,"x_min":64,"x_max":467,"o":"m 64 186 q 123 326 64 268 q 265 383 182 383 q 408 326 349 383 q 467 186 467 268 q 408 47 467 104 q 265 -11 349 -11 q 123 47 182 -11 q 64 186 64 104 m 182 314 q 172 186 172 267 q 182 58 172 106 q 265 24 203 24 q 384 69 339 24 q 429 185 429 115 q 385 301 429 254 q 265 349 340 349 q 182 314 203 349 z "},"p":{"ha":529,"x_min":69,"x_max":460,"o":"m 175 85 l 175 292 q 281 350 199 350 q 385 306 344 350 q 421 206 421 264 q 380 84 421 136 q 281 32 339 32 q 175 85 203 32 m 122 378 q 88 376 93 378 q 69 347 69 371 l 69 -206 q 88 -233 69 -228 q 122 -236 93 -236 q 157 -233 150 -236 q 175 -206 175 -228 l 175 0 q 196 18 175 29 q 283 0 233 0 q 414 67 363 0 q 460 204 460 126 q 410 333 460 282 q 275 383 361 383 q 183 354 219 383 q 175 363 175 347 q 122 378 175 378 z "},"q":{"ha":535,"x_min":64,"x_max":454,"o":"m 349 85 l 349 292 q 243 350 325 350 q 141 307 179 350 q 103 206 103 264 q 144 84 103 136 q 243 32 185 32 q 349 85 321 32 m 401 378 q 436 376 431 378 q 454 347 454 371 l 454 -206 q 436 -233 454 -228 q 401 -236 431 -236 q 367 -233 374 -236 q 349 -206 349 -228 l 349 0 q 328 18 349 29 q 240 0 290 0 q 110 67 161 0 q 64 204 64 126 q 113 333 64 282 q 249 383 163 383 q 340 354 304 383 q 349 363 349 347 q 401 378 349 378 z "},"r":{"ha":451,"x_min":69,"x_max":374,"o":"m 331 286 q 311 330 331 311 q 261 349 292 349 q 203 321 232 349 q 175 271 175 293 l 175 31 q 157 3 175 8 q 122 0 150 0 q 88 3 93 0 q 69 31 69 8 l 69 350 q 88 378 69 372 q 122 381 93 381 q 157 378 150 381 q 175 350 175 372 q 265 385 222 385 q 349 350 315 385 q 374 290 376 321 q 336 215 369 249 q 261 186 303 181 q 236 201 236 189 q 260 221 236 221 q 310 239 289 221 q 331 286 331 257 z "},"s":{"ha":424,"x_min":69,"x_max":343,"o":"m 206 385 q 308 353 274 385 q 315 339 315 347 q 299 324 315 324 q 281 329 290 324 q 210 351 247 351 q 151 317 151 351 q 231 244 151 300 q 308 189 301 194 q 343 114 343 156 q 299 29 343 64 q 197 -6 254 -6 q 78 40 121 -6 q 69 58 69 50 q 86 75 69 75 q 101 68 94 75 q 185 26 147 26 q 271 67 271 26 q 182 156 271 92 q 108 208 146 182 q 72 279 72 240 q 113 355 72 325 q 206 385 154 385 z "},"t":{"ha":301,"x_min":15,"x_max":271,"o":"m 75 413 q 50 433 75 433 q 25 433 29 433 q 15 451 15 436 q 25 469 15 467 q 52 471 29 471 q 75 489 75 471 l 75 703 q 129 761 75 736 q 156 768 143 768 q 181 739 181 768 l 181 489 q 203 472 181 472 q 219 472 207 472 q 240 472 231 472 q 271 451 271 472 q 240 433 271 433 q 219 433 231 433 q 203 433 207 433 q 181 411 181 433 l 181 31 q 163 3 181 8 q 128 0 156 0 q 93 3 100 0 q 75 31 75 8 l 75 413 z "},"u":{"ha":526,"x_min":69,"x_max":446,"o":"m 69 122 l 69 350 q 88 379 69 372 q 122 381 94 381 q 157 378 151 381 q 175 350 175 372 l 175 79 q 194 40 175 49 q 235 36 204 36 q 303 63 265 36 q 340 110 340 89 l 340 350 q 358 379 340 372 q 393 381 365 381 q 428 378 422 381 q 446 350 446 372 l 446 31 q 428 3 446 8 q 393 0 422 0 q 358 3 365 0 q 340 31 340 8 q 338 43 340 43 q 319 33 335 43 q 208 -4 261 -4 q 111 33 153 -4 q 69 122 69 69 z "},"v":{"ha":517,"x_min":51,"x_max":450,"o":"m 56 344 q 51 360 51 353 q 97 381 51 381 q 135 381 133 381 q 164 361 156 378 q 278 153 206 286 q 303 153 290 129 q 410 369 326 200 q 426 381 415 381 q 450 358 450 381 q 447 350 450 354 q 283 15 397 249 q 263 -1 275 -1 q 242 14 251 -1 q 56 344 179 125 z "},"w":{"ha":706,"x_min":50,"x_max":639,"o":"m 51 347 q 50 354 50 351 q 94 379 50 379 q 158 360 150 379 q 240 169 182 304 q 264 171 253 144 l 353 367 q 369 379 358 379 q 386 367 381 379 q 496 163 418 306 q 507 158 500 156 q 519 171 515 160 q 599 368 542 225 q 615 379 603 379 q 639 357 639 379 q 638 350 639 354 l 500 13 q 481 -1 494 -1 q 464 8 469 -1 q 364 199 435 61 q 343 215 356 215 q 321 196 331 215 q 239 13 296 140 q 221 0 233 0 q 201 14 208 0 l 51 347 z "},"x":{"ha":507,"x_min":56,"x_max":438,"o":"m 379 339 l 293 240 q 292 213 281 226 q 429 39 360 128 q 438 22 438 31 q 393 0 438 0 q 329 10 338 0 l 226 139 q 206 140 215 153 l 90 11 q 71 0 81 0 q 56 19 56 0 q 64 42 56 32 l 179 171 q 179 199 190 185 l 65 339 q 58 357 58 349 q 88 379 58 379 q 165 368 157 379 l 242 275 q 268 272 256 258 l 353 369 q 369 378 361 378 q 388 358 388 378 q 379 339 388 349 z "},"y":{"ha":526,"x_min":69,"x_max":446,"o":"m 290 -239 q 260 -222 260 -246 q 271 -207 260 -212 q 340 -107 340 -176 l 340 35 q 336 47 340 47 q 319 38 335 47 q 208 0 261 0 q 111 37 153 0 q 69 126 69 74 l 69 354 q 88 382 69 376 q 122 385 94 385 q 157 382 151 383 q 175 354 175 376 l 175 83 q 194 44 175 53 q 235 40 204 40 q 303 67 265 40 q 340 114 340 93 l 340 354 q 358 382 340 376 q 393 385 364 383 q 428 382 421 385 q 446 354 446 376 l 446 -47 q 400 -169 446 -111 q 290 -239 354 -226 z "},"z":{"ha":478,"x_min":69,"x_max":397,"o":"m 203 61 q 199 44 199 54 q 206 35 199 35 l 363 35 q 393 19 393 35 q 364 0 393 0 l 90 0 q 69 17 71 0 q 74 32 68 25 q 264 317 85 49 q 268 333 268 324 q 261 343 268 343 l 129 343 q 99 358 100 343 q 128 378 97 378 l 376 378 q 397 361 396 378 q 393 346 399 353 l 203 61 z "},"{":{"ha":481,"x_min":65,"x_max":396,"o":"m 344 -296 q 224 -253 272 -296 q 164 -126 164 -200 l 164 135 q 163 217 164 206 q 125 279 156 258 q 65 299 100 297 l 65 338 q 121 371 96 347 q 160 442 151 400 q 164 528 164 464 l 164 767 q 224 888 164 836 q 338 931 274 931 l 396 931 l 396 889 l 338 889 q 267 862 299 889 q 232 793 236 835 q 233 715 233 804 l 233 499 q 231 426 233 443 q 201 363 225 392 q 144 318 178 333 q 203 289 176 313 q 231 236 225 268 q 233 171 233 222 l 233 -81 q 239 -162 233 -139 q 280 -227 247 -203 q 344 -253 313 -251 l 396 -254 l 396 -296 l 344 -296 z "},"|":{"ha":239,"x_min":69,"x_max":96,"o":"m 82 0 q 71 3 72 0 q 69 31 69 6 l 69 931 q 71 958 69 956 q 82 961 72 961 q 94 958 92 961 q 96 931 96 956 l 96 31 q 94 3 96 6 q 82 0 92 0 z "},"}":{"ha":481,"x_min":39,"x_max":369,"o":"m 90 -296 q 213 -253 163 -296 q 271 -126 271 -203 l 271 135 q 272 217 271 206 q 311 279 279 258 q 369 299 338 297 l 369 338 q 314 371 338 349 q 275 442 283 400 q 271 528 271 464 l 271 767 q 213 888 271 836 q 97 931 163 931 l 39 931 l 39 889 l 97 889 q 169 860 136 889 q 203 794 199 835 q 203 715 203 794 l 203 499 q 215 392 203 424 q 290 318 233 344 q 233 290 257 313 q 204 236 210 268 q 203 171 203 224 l 203 -81 q 197 -162 203 -139 q 156 -227 188 -203 q 90 -253 124 -251 l 39 -254 l 39 -296 l 90 -296 z "},"~":{"ha":532,"x_min":57,"x_max":379,"o":"m 69 258 q 149 274 104 279 q 212 260 174 271 q 275 246 250 249 q 356 263 324 239 q 369 268 363 268 q 379 260 379 268 q 367 239 379 250 q 274 215 328 208 q 208 229 247 218 q 144 243 169 240 q 101 237 126 246 q 67 228 75 228 q 57 239 57 228 q 69 258 57 250 z "}," ":{"ha":281,"x_min":0,"x_max":0,"o":""},"¡":{"ha":333,"x_min":76,"x_max":217,"o":"m 214 771 q 194 722 214 742 q 146 701 174 701 q 97 722 117 701 q 76 771 76 742 q 97 819 76 799 q 146 839 117 839 q 194 819 174 839 q 214 771 214 799 m 149 0 q 81 35 81 0 q 89 88 81 39 q 104 194 99 147 q 129 606 129 399 q 147 639 129 639 q 164 606 164 639 q 194 188 164 438 q 210 82 200 139 q 217 35 217 36 q 149 0 217 0 z "},"¢":{"ha":564,"x_min":71,"x_max":490,"o":"m 274 588 q 193 540 224 579 q 179 369 179 476 q 193 200 179 264 q 250 163 210 172 q 274 183 271 157 l 300 576 q 294 589 301 588 q 274 588 290 590 m 71 381 q 131 542 71 469 q 285 632 190 615 q 299 635 293 633 q 306 658 304 638 l 313 739 q 317 768 314 764 q 333 772 321 772 q 349 767 346 772 q 350 736 351 761 l 344 658 q 365 632 343 638 q 464 585 419 621 q 475 563 475 576 q 458 544 475 544 q 442 550 451 544 q 404 575 422 564 q 363 589 386 586 q 338 567 340 592 l 311 175 q 329 156 310 156 q 460 207 399 156 q 476 215 469 215 q 490 197 490 215 q 481 175 490 183 q 408 135 456 153 q 326 118 361 118 q 306 93 307 118 l 299 8 q 294 -20 297 -15 q 278 -25 290 -25 q 263 -18 265 -24 q 261 11 260 -12 l 267 101 q 246 129 269 122 q 118 222 165 154 q 71 381 71 290 z "},"£":{"ha":775,"x_min":69,"x_max":696,"o":"m 249 117 q 238 120 249 117 q 203 124 226 124 q 137 103 168 124 q 106 58 106 83 q 160 21 106 21 q 258 86 221 21 q 249 117 272 111 m 608 621 q 547 708 603 668 q 428 747 490 747 q 313 689 353 747 q 276 551 276 638 q 300 411 276 492 q 332 290 329 313 q 356 268 335 268 q 426 283 394 268 q 442 288 435 288 q 453 279 453 288 q 440 261 453 271 q 357 236 408 236 q 333 218 335 236 q 318 138 329 176 q 335 107 313 119 q 386 81 365 90 q 460 45 422 63 q 538 28 497 28 q 675 107 614 28 q 679 110 676 110 q 693 101 686 110 q 696 86 700 92 q 539 -3 642 -3 q 453 13 493 -3 q 372 50 435 18 q 325 78 353 60 q 290 71 303 92 q 160 -12 242 -12 q 97 9 124 -12 q 69 64 69 31 q 111 132 69 107 q 200 153 149 153 q 254 146 228 153 q 281 169 281 138 q 274 226 281 199 q 258 246 269 243 q 226 249 253 249 q 176 236 208 249 q 154 244 154 228 q 169 265 154 256 q 226 279 192 279 q 247 283 243 279 q 244 299 250 288 q 183 407 214 353 q 151 533 151 471 q 231 715 151 643 q 422 788 311 788 q 565 743 501 788 q 647 632 628 699 q 633 597 657 599 q 608 621 613 596 z "},"¤":{"ha":756,"x_min":31,"x_max":607,"o":"m 313 229 q 157 294 214 229 q 104 438 104 353 q 157 581 104 522 q 313 646 214 646 q 469 581 411 646 q 521 438 521 522 q 469 294 521 353 q 313 229 411 229 m 133 656 l 68 722 l 31 683 q 96 618 64 651 q 35 436 35 542 q 97 254 35 329 q 31 186 81 236 l 68 147 l 136 217 q 313 160 208 160 q 496 221 421 160 l 568 147 l 607 186 l 532 260 q 590 438 590 335 q 535 613 590 538 l 607 683 l 568 722 l 497 651 q 313 715 426 715 q 133 656 207 715 z "},"¥":{"ha":969,"x_min":33,"x_max":892,"o":"m 603 493 l 447 493 l 508 376 q 528 358 518 358 q 549 379 539 358 l 603 493 m 675 649 l 368 649 l 424 542 l 625 542 l 675 649 m 892 674 q 890 674 892 669 q 857 649 881 649 l 725 649 l 674 542 l 857 542 q 886 537 881 542 q 892 517 892 532 q 857 493 892 493 l 651 493 l 569 322 q 560 278 560 301 l 560 35 q 483 0 560 0 q 407 35 407 0 l 407 240 q 394 283 404 254 l 285 493 l 68 493 q 33 517 33 493 q 39 537 33 532 q 68 542 44 542 l 260 542 l 206 649 l 68 649 q 33 674 33 649 q 68 697 33 697 l 181 697 q 78 903 135 789 q 65 919 76 907 q 58 936 58 928 q 121 958 58 958 q 182 958 182 958 q 225 932 214 954 l 344 697 l 697 697 q 814 943 767 846 q 843 958 824 963 q 858 946 853 956 q 858 925 863 935 l 749 697 l 857 697 q 890 674 881 697 l 892 678 q 892 674 892 676 z "},"¦":{"ha":238,"x_min":69,"x_max":96,"o":"m 82 546 q 71 549 72 546 q 69 576 69 551 l 69 931 q 71 958 69 956 q 82 961 72 961 q 94 958 92 961 q 96 931 96 956 l 96 576 q 94 549 96 551 q 82 546 92 546 m 82 -3 q 71 0 72 -3 q 69 28 69 3 l 69 382 q 71 410 69 407 q 82 413 72 413 q 94 410 92 413 q 96 382 96 407 l 96 28 q 94 0 96 3 q 82 -3 92 -3 z "},"§":{"ha":499,"x_min":50,"x_max":443,"o":"m 246 617 q 307 578 285 617 q 329 490 329 540 q 306 401 329 436 q 229 367 278 363 q 142 479 142 374 q 170 575 142 533 q 246 617 199 617 m 331 642 q 165 808 165 682 q 201 913 165 869 q 296 954 236 956 q 360 942 328 954 q 393 893 386 932 q 378 893 393 893 q 338 851 342 893 q 350 810 335 826 q 388 794 365 794 q 443 851 436 794 q 416 931 449 899 q 329 972 383 964 q 179 964 251 985 q 74 835 89 926 q 71 804 71 818 q 183 654 71 696 q 101 591 129 636 q 72 492 72 546 q 151 342 72 389 q 328 144 343 289 q 285 58 322 92 q 197 24 249 24 q 133 36 167 24 q 99 85 113 44 l 115 85 q 157 128 154 85 q 143 169 158 153 q 106 185 128 185 q 50 128 57 185 q 78 47 44 81 q 165 6 111 14 q 222 0 196 0 q 314 17 265 0 q 371 53 343 26 q 419 144 411 92 q 422 172 422 158 q 378 282 422 236 q 290 328 340 321 q 407 496 407 368 q 331 642 407 601 z "},"¨":{"ha":433,"x_min":19,"x_max":369,"o":"m 19 528 q 35 565 19 550 q 71 581 50 581 q 108 565 93 581 q 124 528 124 550 q 108 490 124 506 q 71 475 93 475 q 35 490 50 475 q 19 528 19 506 m 265 528 q 281 565 265 550 q 317 581 296 581 q 354 565 339 581 q 369 528 369 550 q 354 490 369 506 q 317 475 339 475 q 281 490 296 475 q 265 528 265 506 z "},"©":{"ha":790,"x_min":68,"x_max":710,"o":"m 565 397 q 414 315 511 315 q 276 369 329 315 q 224 507 224 422 q 278 649 224 589 q 414 710 333 710 q 550 651 504 710 q 554 636 557 642 q 539 639 549 629 q 421 697 485 697 q 317 639 353 697 q 286 507 286 588 q 419 331 286 331 q 554 411 506 331 q 567 417 560 421 q 565 397 574 411 m 389 872 q 617 766 524 872 q 710 510 710 660 q 617 255 710 361 q 389 149 524 149 q 162 255 256 149 q 68 510 68 361 q 162 766 68 660 q 389 872 256 872 m 389 831 q 192 738 275 831 q 110 510 110 644 q 192 283 110 376 q 389 190 275 190 q 586 283 504 190 q 668 510 668 376 q 586 738 668 644 q 389 831 504 831 z "},"ª":{"ha":439,"x_min":90,"x_max":369,"o":"m 206 603 q 142 574 168 603 q 117 504 117 544 q 140 440 117 467 q 203 414 163 414 q 267 443 246 414 l 267 571 q 206 603 243 603 m 210 624 q 267 603 242 624 l 267 604 q 299 624 267 622 q 331 604 331 624 l 331 415 q 299 397 331 397 q 267 415 267 397 q 197 392 238 392 q 123 423 153 392 q 93 499 93 454 q 125 589 93 554 q 210 624 157 624 m 369 278 q 335 249 369 249 l 125 249 q 90 278 90 249 q 125 307 90 307 l 335 307 q 369 278 369 307 z "},"«":{"ha":619,"x_min":85,"x_max":450,"o":"m 254 617 q 272 631 265 631 q 283 618 276 631 q 278 578 294 599 l 132 392 q 132 369 124 381 l 278 185 q 283 143 294 164 q 271 132 276 132 q 254 146 265 132 l 86 358 q 85 399 71 379 q 254 617 92 408 m 421 617 q 439 631 432 631 q 450 618 443 631 q 444 578 461 599 l 299 392 q 299 369 290 381 l 444 185 q 450 143 461 164 q 438 132 443 132 q 421 146 432 132 l 253 358 q 251 399 238 379 q 421 617 258 408 z "},"¬":{"ha":886,"x_min":49,"x_max":799,"o":"m 49 347 l 49 292 l 743 292 l 743 56 l 799 56 l 799 347 l 49 347 z "},"­":{"ha":532,"x_min":54,"x_max":369,"o":"m 369 201 q 335 154 369 154 l 89 154 q 54 201 54 154 q 89 250 54 250 l 335 250 q 369 201 369 250 z "},"®":{"ha":756,"x_min":40,"x_max":683,"o":"m 400 411 q 490 529 490 443 q 411 654 490 614 q 310 676 369 676 q 292 665 292 676 l 292 326 q 261 313 292 313 q 231 326 231 313 l 231 679 q 261 693 231 693 q 274 693 269 693 q 375 685 306 693 q 464 638 426 674 q 507 533 507 594 q 410 399 507 435 q 407 392 404 396 q 496 321 458 321 q 513 315 513 321 q 497 307 513 307 q 393 386 443 307 q 383 390 389 392 q 356 388 369 388 q 320 399 338 388 q 303 426 303 411 q 335 451 303 451 q 390 415 363 451 q 400 411 394 410 m 318 425 q 353 403 318 403 q 375 406 364 403 q 376 410 379 406 q 335 436 357 436 q 318 425 318 436 m 361 872 q 590 766 496 872 q 683 510 683 660 q 590 255 683 361 q 361 149 496 149 q 134 255 228 149 q 40 510 40 361 q 134 766 40 660 q 361 872 228 872 m 361 831 q 165 738 247 831 q 82 510 82 644 q 165 283 82 376 q 361 190 247 190 q 559 283 476 190 q 642 510 642 376 q 559 738 642 644 q 361 831 476 831 z "},"¯":{"ha":399,"x_min":60,"x_max":336,"o":"m 336 521 q 326 503 336 506 q 301 501 324 501 l 94 501 q 69 503 74 501 q 60 521 60 506 q 69 539 60 536 q 94 540 74 540 l 301 540 q 326 539 322 540 q 336 521 336 536 z "},"°":{"ha":474,"x_min":85,"x_max":361,"o":"m 85 974 q 125 1071 85 1031 q 224 1111 165 1111 q 321 1071 281 1111 q 361 974 361 1031 q 321 875 361 915 q 224 835 281 835 q 125 875 165 835 q 85 974 85 915 m 140 972 q 165 915 140 939 q 222 890 189 890 q 281 915 257 890 q 306 972 306 939 q 281 1031 306 1007 q 222 1056 257 1056 q 165 1031 189 1056 q 140 972 140 1007 z "},"±":{"ha":460,"x_min":46,"x_max":433,"o":"m 214 446 l 46 446 l 46 492 l 214 492 l 214 633 l 260 633 l 260 492 l 433 492 l 433 446 l 260 446 l 260 342 l 433 342 l 433 296 l 260 296 l 260 292 l 214 292 l 214 296 l 46 296 l 46 342 l 214 342 l 214 446 z "},"²":{"ha":575,"x_min":99,"x_max":468,"o":"m 207 506 q 158 515 181 515 q 118 485 118 515 q 149 468 118 468 q 208 483 179 468 q 217 496 218 489 q 207 506 217 501 m 154 831 q 156 815 158 825 q 144 807 153 807 q 131 815 132 807 q 135 835 129 821 q 296 942 171 942 q 403 895 358 942 q 447 789 447 849 q 396 640 447 722 q 279 510 349 567 q 279 493 267 499 q 368 469 329 469 q 454 521 421 469 q 465 526 460 528 q 468 517 469 525 q 361 451 450 451 q 260 481 319 451 q 238 479 249 486 q 149 446 185 446 q 115 457 131 446 q 99 485 99 468 q 117 521 99 507 q 163 535 136 535 q 226 519 192 535 q 257 519 247 510 q 337 642 306 567 q 368 793 368 718 q 279 918 368 918 q 203 893 238 918 q 154 831 168 868 z "},"³":{"ha":571,"x_min":115,"x_max":461,"o":"m 323 738 q 317 740 323 738 q 294 742 311 742 q 267 729 264 742 q 289 718 268 718 q 325 726 310 718 q 323 738 335 733 m 115 565 q 124 588 108 588 q 135 576 131 588 q 275 482 161 482 q 386 607 386 482 q 351 719 386 683 q 292 700 319 700 q 243 728 243 700 q 296 758 243 758 q 346 751 321 758 q 357 818 357 775 q 289 919 357 919 q 174 844 201 919 q 161 839 171 836 q 156 857 150 842 q 206 918 167 896 q 292 940 244 940 q 386 908 346 940 q 426 825 426 876 q 388 746 426 783 q 386 735 379 739 q 461 608 461 692 q 399 499 461 538 q 267 465 346 465 q 115 565 143 465 z "},"´":{"ha":474,"x_min":203,"x_max":294,"o":"m 251 624 q 288 632 263 647 q 294 597 311 618 q 210 506 254 550 q 203 501 204 500 q 204 510 201 503 q 251 624 213 529 z "},"µ":{"ha":932,"x_min":46,"x_max":788,"o":"m 454 92 q 321 0 388 0 q 175 104 229 0 l 138 -151 q 92 -197 131 -197 q 58 -183 72 -197 q 46 -151 43 -169 l 157 578 q 203 636 165 636 q 236 613 225 636 q 243 564 247 590 l 199 265 l 197 194 q 226 81 196 129 q 317 26 260 28 q 440 107 394 25 q 453 129 446 115 l 518 590 q 561 638 525 638 q 595 619 582 638 q 604 578 608 600 l 538 163 q 601 76 529 107 q 625 71 613 71 q 718 156 676 71 l 754 228 l 788 208 l 750 133 q 588 0 683 0 q 560 3 574 0 q 454 92 474 19 z "},"¶":{"ha":1024,"x_min":68,"x_max":875,"o":"m 703 496 l 753 496 q 769 522 769 496 l 769 881 q 746 903 769 903 l 704 903 q 686 883 686 903 l 686 513 q 703 496 686 496 m 686 428 l 686 21 q 661 -4 686 -4 l 607 -4 q 582 21 582 -4 l 582 404 q 558 449 582 449 l 336 449 q 144 517 221 449 q 68 701 68 586 q 174 893 68 826 q 408 951 267 951 l 849 951 q 875 926 875 951 l 875 21 q 849 -4 875 -4 l 796 -4 q 769 21 769 -4 l 769 424 q 749 449 769 449 l 703 449 q 686 428 686 449 m 542 496 q 569 506 556 496 q 582 531 582 517 l 582 879 q 551 904 582 904 l 408 904 q 251 849 314 904 q 185 690 185 789 q 244 553 185 610 q 385 496 303 496 l 542 496 z "},"·":{"ha":372,"x_min":79,"x_max":217,"o":"m 79 307 q 99 355 79 335 q 149 375 119 375 q 197 355 176 375 q 217 307 217 335 q 197 258 217 278 q 149 238 176 238 q 99 258 119 238 q 79 307 79 278 z "},"¸":{"ha":56,"x_min":264,"x_max":482,"o":"m 301 -17 l 340 -6 l 340 -50 l 374 -50 q 447 -75 414 -50 q 482 -135 481 -100 q 442 -244 485 -212 q 325 -271 406 -269 l 264 -272 l 264 -232 l 331 -226 q 418 -158 418 -218 q 397 -120 418 -135 q 346 -106 375 -106 l 301 -106 l 301 -17 z "},"¹":{"ha":394,"x_min":106,"x_max":235,"o":"m 144 900 q 125 893 139 897 q 106 903 106 888 q 117 914 106 910 q 197 949 169 936 q 235 935 235 967 l 235 497 q 199 475 235 475 q 161 497 161 475 l 161 882 q 144 900 161 906 z "},"º":{"ha":428,"x_min":90,"x_max":369,"o":"m 114 494 q 149 578 114 543 q 235 613 185 613 q 320 578 285 613 q 356 494 356 543 q 320 410 356 444 q 235 376 285 376 q 149 410 185 376 q 114 494 114 444 m 185 571 q 178 494 178 543 q 185 418 178 446 q 235 397 197 397 q 306 424 279 397 q 333 493 332 451 q 306 563 333 535 q 235 592 279 592 q 185 571 197 592 m 369 278 q 335 249 369 249 l 125 249 q 90 278 90 249 q 125 307 90 307 l 335 307 q 369 278 369 307 z "},"»":{"ha":619,"x_min":174,"x_max":539,"o":"m 368 617 q 351 631 358 631 q 340 618 347 631 q 346 578 329 599 l 492 392 q 490 369 500 381 l 346 185 q 340 143 329 164 q 353 132 347 132 q 369 146 358 132 l 536 358 q 539 399 553 379 q 368 617 532 408 m 203 617 q 185 631 192 631 q 174 618 181 631 q 181 578 163 599 l 325 392 q 325 369 333 381 l 181 185 q 174 143 163 164 q 186 132 181 132 q 203 146 193 132 l 371 358 q 374 399 386 379 q 203 617 365 408 z "},"¼":{"ha":781,"x_min":93,"x_max":690,"o":"m 106 -10 q 93 1 93 -4 q 103 29 93 10 l 542 921 q 554 942 553 940 q 575 943 561 949 q 586 931 586 938 q 576 904 586 924 l 138 13 q 126 -8 128 -6 q 106 -10 119 -15 m 144 900 q 125 893 139 897 q 106 903 106 888 q 117 914 106 910 q 197 949 169 936 q 235 935 235 967 l 235 497 q 199 475 235 475 q 161 497 161 475 l 161 882 q 144 900 161 906 m 540 149 l 540 354 q 533 368 540 368 q 525 364 529 368 q 357 171 489 325 q 356 161 354 167 q 363 156 357 156 q 399 158 381 158 q 531 139 432 158 q 540 149 540 136 m 685 142 q 619 117 644 122 q 607 101 607 114 l 607 17 q 576 1 607 3 q 540 19 540 0 l 540 100 q 528 117 540 114 q 408 138 425 138 q 319 125 361 138 q 303 135 303 121 q 307 143 303 139 q 585 471 397 249 q 599 471 589 476 q 607 458 607 465 l 607 149 q 618 139 607 136 q 676 160 631 142 q 690 156 688 165 q 685 142 694 147 z "},"½":{"ha":840,"x_min":93,"x_max":729,"o":"m 106 -10 q 93 1 93 -4 q 103 29 93 10 l 542 921 q 554 942 553 940 q 575 943 561 949 q 586 931 586 938 q 576 904 586 924 l 138 13 q 126 -8 128 -6 q 106 -10 119 -15 m 144 900 q 125 893 139 897 q 106 903 106 888 q 117 914 106 910 q 197 949 169 936 q 235 935 235 967 l 235 497 q 199 475 235 475 q 161 497 161 475 l 161 882 q 144 900 161 906 m 469 51 q 419 61 442 61 q 379 31 379 61 q 410 14 379 14 q 469 29 440 14 q 478 42 479 35 q 469 51 478 47 m 415 376 q 417 361 419 371 q 406 351 414 351 q 392 361 393 351 q 396 381 392 367 q 557 488 432 488 q 665 441 619 488 q 710 333 710 394 q 657 186 710 268 q 542 56 610 113 q 542 39 528 44 q 629 15 590 15 q 717 67 682 15 q 726 72 721 74 q 729 63 732 71 q 622 -3 711 -3 q 521 26 581 -3 q 499 25 510 32 q 410 -8 446 -8 q 376 3 392 -8 q 360 31 360 14 q 379 67 360 53 q 424 81 399 81 q 488 65 453 81 q 518 65 508 56 q 598 188 567 113 q 629 339 629 264 q 540 464 629 464 q 465 439 499 464 q 415 376 431 414 z "},"¾":{"ha":938,"x_min":115,"x_max":882,"o":"m 296 -10 q 283 1 283 -4 q 294 29 283 10 l 733 921 q 747 944 742 939 q 765 943 751 949 q 778 931 778 938 q 767 904 778 924 l 328 13 q 317 -8 319 -6 q 296 -10 310 -15 m 731 149 l 731 354 q 724 368 731 368 q 717 364 721 368 q 549 171 681 325 q 546 161 546 167 q 554 156 547 156 q 589 158 572 158 q 721 139 624 158 q 731 149 731 136 m 876 142 q 810 117 835 122 q 799 101 799 114 l 799 17 q 768 1 799 3 q 731 19 731 0 l 731 100 q 719 117 731 114 q 600 138 617 138 q 511 125 551 138 q 494 135 494 121 q 497 143 494 139 q 776 471 589 249 q 789 471 781 476 q 799 458 799 465 l 799 149 q 810 139 799 136 q 867 160 822 142 q 882 156 878 165 q 876 142 886 147 m 323 738 q 317 740 323 738 q 294 742 311 742 q 267 729 264 742 q 289 718 268 718 q 325 726 310 718 q 323 738 335 733 m 115 565 q 124 588 108 588 q 135 576 131 588 q 275 482 161 482 q 386 607 386 482 q 351 719 386 683 q 292 700 319 700 q 243 728 243 700 q 296 758 243 758 q 346 751 321 758 q 357 818 357 775 q 289 919 357 919 q 174 844 201 919 q 161 839 171 836 q 156 857 150 842 q 206 918 167 896 q 292 940 244 940 q 386 908 346 940 q 426 825 426 876 q 388 746 426 783 q 386 735 379 739 q 461 608 461 692 q 399 499 461 538 q 267 465 346 465 q 115 565 143 465 z "},"¿":{"ha":619,"x_min":64,"x_max":490,"o":"m 368 767 q 348 717 368 738 q 300 697 328 697 q 251 717 271 697 q 231 767 231 738 q 251 815 231 794 q 300 835 271 835 q 348 815 328 835 q 368 767 368 794 m 64 200 q 122 350 64 274 q 231 468 176 408 q 289 586 289 535 q 282 604 289 585 q 281 617 281 611 q 293 632 281 632 q 313 625 301 632 q 325 576 325 618 q 288 482 325 540 q 218 367 231 396 q 179 196 179 286 q 290 38 179 38 q 385 69 340 38 q 436 122 418 93 q 443 156 435 136 q 469 175 451 175 q 490 153 490 175 q 485 132 490 143 q 290 0 425 0 q 129 55 194 0 q 64 200 64 110 z "},"À":{"ha":1026,"x_min":63,"x_max":903,"o":"m 603 378 q 451 742 525 567 q 433 760 444 760 q 418 742 425 760 q 258 378 365 622 q 263 367 253 367 l 599 367 q 603 378 607 367 m 743 33 l 626 319 q 613 329 624 329 l 246 329 q 232 319 236 329 q 100 14 160 153 q 83 1 96 1 q 63 24 63 1 q 65 33 63 28 q 190 321 104 124 q 182 329 193 329 l 121 329 q 97 329 100 329 q 86 347 88 332 q 97 365 86 363 q 121 367 100 367 l 194 367 q 215 378 210 367 l 458 938 q 488 961 469 961 q 513 943 506 961 l 899 40 q 903 25 903 32 q 831 0 903 -1 q 743 33 756 1 m 517 1122 q 481 1131 506 1146 q 474 1096 457 1117 q 558 1004 514 1049 q 565 1000 564 999 q 564 1008 567 1001 q 517 1122 556 1028 z "},"Á":{"ha":1026,"x_min":63,"x_max":903,"o":"m 603 378 q 451 742 525 567 q 433 760 444 760 q 418 742 425 760 q 258 378 365 622 q 263 367 253 367 l 599 367 q 603 378 607 367 m 743 33 l 626 319 q 613 329 624 329 l 246 329 q 232 319 236 329 q 100 14 160 153 q 83 1 96 1 q 63 24 63 1 q 65 33 63 28 q 190 321 104 124 q 182 329 193 329 l 121 329 q 97 329 100 329 q 86 347 88 332 q 97 365 86 363 q 121 367 100 367 l 194 367 q 215 378 210 367 l 458 938 q 488 961 469 961 q 513 943 506 961 l 899 40 q 903 25 903 32 q 831 0 903 -1 q 743 33 756 1 m 472 1114 q 508 1122 483 1138 q 515 1088 532 1108 q 431 996 475 1040 q 424 992 425 990 q 425 1000 422 993 q 472 1114 433 1019 z "},"Â":{"ha":1026,"x_min":63,"x_max":903,"o":"m 603 378 q 451 742 525 567 q 433 760 444 760 q 418 742 425 760 q 258 378 365 622 q 263 367 253 367 l 599 367 q 603 378 607 367 m 743 33 l 626 319 q 613 329 624 329 l 246 329 q 232 319 236 329 q 100 14 160 153 q 83 1 96 1 q 63 24 63 1 q 65 33 63 28 q 190 321 104 124 q 182 329 193 329 l 121 329 q 97 329 100 329 q 86 347 88 332 q 97 365 86 363 q 121 367 100 367 l 194 367 q 215 378 210 367 l 458 938 q 488 961 469 961 q 513 943 506 961 l 899 40 q 903 25 903 32 q 831 0 903 -1 q 743 33 756 1 m 514 1097 l 586 1043 q 608 1019 608 1026 q 601 1006 608 1015 q 590 997 594 997 q 563 1013 583 997 l 492 1067 q 478 1067 485 1072 l 407 1013 q 379 997 386 997 q 367 1006 374 997 q 361 1019 361 1015 q 383 1043 361 1026 l 456 1097 q 485 1113 476 1113 q 514 1097 494 1113 z "},"Ã":{"ha":1026,"x_min":63,"x_max":903,"o":"m 603 378 q 451 742 525 567 q 433 760 444 760 q 418 742 425 760 q 258 378 365 622 q 263 367 253 367 l 599 367 q 603 378 607 367 m 743 33 l 626 319 q 613 329 624 329 l 246 329 q 232 319 236 329 q 100 14 160 153 q 83 1 96 1 q 63 24 63 1 q 65 33 63 28 q 190 321 104 124 q 182 329 193 329 l 121 329 q 97 329 100 329 q 86 347 88 332 q 97 365 86 363 q 121 367 100 367 l 194 367 q 215 378 210 367 l 458 938 q 488 961 469 961 q 513 943 506 961 l 899 40 q 903 25 903 32 q 831 0 903 -1 q 743 33 756 1 m 369 1058 q 438 1075 399 1081 q 491 1059 458 1071 q 544 1044 524 1047 q 613 1063 586 1039 q 625 1069 619 1069 q 633 1060 633 1069 q 622 1038 633 1049 q 543 1013 590 1006 q 488 1027 521 1015 q 433 1042 456 1039 q 393 1035 415 1044 q 368 1026 371 1026 q 358 1038 358 1026 q 369 1058 358 1050 z "},"Ä":{"ha":1026,"x_min":63,"x_max":903,"o":"m 603 378 q 451 742 525 567 q 433 760 444 760 q 418 742 425 760 q 258 378 365 622 q 263 367 253 367 l 599 367 q 603 378 607 367 m 743 33 l 626 319 q 613 329 624 329 l 246 329 q 232 319 236 329 q 100 14 160 153 q 83 1 96 1 q 63 24 63 1 q 65 33 63 28 q 190 321 104 124 q 182 329 193 329 l 121 329 q 97 329 100 329 q 86 347 88 332 q 97 365 86 363 q 121 367 100 367 l 194 367 q 215 378 210 367 l 458 938 q 488 961 469 961 q 513 943 506 961 l 899 40 q 903 25 903 32 q 831 0 903 -1 q 743 33 756 1 m 317 1047 q 332 1085 317 1069 q 368 1100 347 1100 q 406 1085 390 1100 q 421 1047 421 1069 q 406 1010 421 1025 q 368 994 390 994 q 332 1010 347 994 q 317 1047 317 1025 m 563 1047 q 578 1085 563 1069 q 614 1100 593 1100 q 651 1085 636 1100 q 667 1047 667 1069 q 651 1010 667 1025 q 614 994 636 994 q 578 1010 593 994 q 563 1047 563 1025 z "},"Å":{"ha":1026,"x_min":63,"x_max":903,"o":"m 603 378 q 451 742 525 567 q 433 760 444 760 q 418 742 425 760 q 258 378 365 622 q 263 367 253 367 l 599 367 q 603 378 607 367 m 381 1014 q 409 1083 381 1054 q 478 1111 438 1111 q 547 1083 518 1111 q 575 1014 575 1054 q 519 928 575 954 q 899 40 526 914 q 903 25 903 32 q 831 0 903 -1 q 743 33 756 1 l 626 319 q 613 329 624 329 l 246 329 q 232 319 236 329 q 100 14 160 153 q 83 1 96 1 q 63 24 63 1 q 65 33 63 28 q 190 321 104 124 q 182 329 193 329 l 121 329 q 97 329 100 329 q 86 347 88 332 q 97 365 86 363 q 121 367 100 367 l 194 367 q 215 378 210 367 l 451 921 q 381 1014 381 940 m 419 1014 q 435 975 419 992 q 474 957 451 958 q 496 960 485 964 q 536 1014 536 972 q 519 1056 536 1039 q 478 1072 501 1072 q 437 1056 454 1072 q 419 1014 419 1039 z "},"Æ":{"ha":1068,"x_min":63,"x_max":1019,"o":"m 454 390 l 454 744 q 439 758 453 758 q 418 742 425 758 q 258 378 365 622 q 263 367 253 367 l 428 367 q 454 390 454 367 m 631 654 l 985 654 q 1010 653 1007 654 q 1019 635 1019 650 q 1010 617 1019 619 q 985 615 1007 615 l 628 615 q 607 597 607 615 l 607 56 q 624 40 607 40 l 958 40 q 988 36 983 40 q 993 19 993 32 q 983 1 993 4 q 958 0 981 0 l 531 0 q 454 35 454 0 l 454 308 q 432 329 454 329 l 246 329 q 232 319 236 329 q 100 14 158 153 q 83 1 96 1 q 63 24 63 1 q 65 33 63 28 q 190 321 103 122 q 182 329 193 329 l 121 329 q 97 329 100 329 q 86 347 88 332 q 97 365 86 363 q 121 367 100 367 l 194 367 q 215 378 210 367 q 469 946 336 658 q 531 954 476 954 l 938 954 q 963 953 960 954 q 972 935 972 950 q 963 917 972 919 q 938 917 960 917 l 628 917 q 607 897 607 917 l 607 675 q 631 654 607 654 z "},"Ç":{"ha":1035,"x_min":60,"x_max":933,"o":"m 563 -21 l 563 -50 l 596 -50 q 669 -75 636 -50 q 704 -135 703 -100 q 663 -244 707 -214 q 547 -271 628 -269 l 486 -272 l 486 -232 l 553 -226 q 640 -160 640 -219 q 618 -120 640 -135 q 568 -106 596 -106 l 524 -106 l 524 -21 q 188 117 315 -15 q 60 458 60 250 q 198 814 60 664 q 538 964 336 964 q 876 818 764 964 q 892 793 892 797 q 874 772 892 772 q 849 789 864 772 q 554 933 714 933 q 294 786 383 933 q 218 458 218 660 q 300 138 218 253 q 551 17 386 17 q 741 70 653 17 q 886 218 829 124 q 904 238 897 238 q 918 232 910 238 q 933 219 933 221 q 915 185 933 213 q 563 -21 788 -8 z "},"È":{"ha":753,"x_min":69,"x_max":635,"o":"m 246 654 l 600 654 q 625 653 621 654 q 635 635 635 650 q 625 617 635 619 q 600 615 622 615 l 243 615 q 222 597 222 615 l 222 54 q 239 40 222 40 l 574 40 q 603 36 599 40 q 608 19 608 32 q 599 1 608 4 q 574 0 596 0 l 146 0 q 69 35 69 0 l 69 919 q 146 954 69 954 l 553 954 q 578 953 574 954 q 588 935 588 950 q 578 917 588 919 q 553 917 575 917 l 243 917 q 222 897 222 917 l 222 675 q 246 654 222 654 m 340 1122 q 304 1131 329 1146 q 297 1096 281 1117 q 382 1004 338 1049 q 389 1000 388 999 q 388 1008 390 1001 q 340 1122 379 1028 z "},"É":{"ha":753,"x_min":69,"x_max":635,"o":"m 246 654 l 600 654 q 625 653 621 654 q 635 635 635 650 q 625 617 635 619 q 600 615 622 615 l 243 615 q 222 597 222 615 l 222 54 q 239 40 222 40 l 574 40 q 603 36 599 40 q 608 19 608 32 q 599 1 608 4 q 574 0 596 0 l 146 0 q 69 35 69 0 l 69 919 q 146 954 69 954 l 553 954 q 578 953 574 954 q 588 935 588 950 q 578 917 588 919 q 553 917 575 917 l 243 917 q 222 897 222 917 l 222 675 q 246 654 222 654 m 347 1118 q 383 1126 358 1142 q 390 1092 407 1113 q 306 1000 350 1044 q 299 996 300 994 q 300 1004 297 997 q 347 1118 308 1024 z "},"Ê":{"ha":753,"x_min":69,"x_max":635,"o":"m 246 654 l 600 654 q 625 653 621 654 q 635 635 635 650 q 625 617 635 619 q 600 615 622 615 l 243 615 q 222 597 222 615 l 222 54 q 239 40 222 40 l 574 40 q 603 36 599 40 q 608 19 608 32 q 599 1 608 4 q 574 0 596 0 l 146 0 q 69 35 69 0 l 69 919 q 146 954 69 954 l 553 954 q 578 953 574 954 q 588 935 588 950 q 578 917 588 919 q 553 917 575 917 l 243 917 q 222 897 222 917 l 222 675 q 246 654 222 654 m 368 1097 l 440 1043 q 463 1019 463 1026 q 456 1006 463 1015 q 444 997 449 997 q 417 1013 438 997 l 346 1067 q 332 1067 339 1072 l 261 1013 q 233 997 240 997 q 222 1006 228 997 q 215 1019 215 1015 q 238 1043 215 1026 l 310 1097 q 339 1113 331 1113 q 368 1097 349 1113 z "},"Ë":{"ha":753,"x_min":69,"x_max":635,"o":"m 246 654 l 600 654 q 625 653 621 654 q 635 635 635 650 q 625 617 635 619 q 600 615 622 615 l 243 615 q 222 597 222 615 l 222 54 q 239 40 222 40 l 574 40 q 603 36 599 40 q 608 19 608 32 q 599 1 608 4 q 574 0 596 0 l 146 0 q 69 35 69 0 l 69 919 q 146 954 69 954 l 553 954 q 578 953 574 954 q 588 935 588 950 q 578 917 588 919 q 553 917 575 917 l 243 917 q 222 897 222 917 l 222 675 q 246 654 222 654 m 167 1057 q 182 1094 167 1079 q 218 1110 197 1110 q 256 1094 240 1110 q 271 1057 271 1079 q 256 1019 271 1035 q 218 1004 240 1004 q 182 1019 197 1004 q 167 1057 167 1035 m 413 1057 q 428 1094 413 1079 q 464 1110 443 1110 q 501 1094 486 1110 q 517 1057 517 1079 q 501 1019 517 1035 q 464 1004 486 1004 q 428 1019 443 1004 q 413 1057 413 1035 z "},"Ì":{"ha":347,"x_min":69,"x_max":222,"o":"m 146 0 q 69 35 69 0 l 69 919 q 146 954 69 954 q 222 919 222 954 l 222 35 q 146 0 222 0 m 143 1122 q 107 1131 132 1146 q 100 1096 83 1117 q 185 1004 140 1049 q 192 1000 190 999 q 190 1008 193 1001 q 143 1122 182 1028 z "},"Í":{"ha":347,"x_min":69,"x_max":222,"o":"m 146 0 q 69 35 69 0 l 69 919 q 146 954 69 954 q 222 919 222 954 l 222 35 q 146 0 222 0 m 150 1118 q 186 1126 161 1142 q 193 1092 210 1113 q 108 1000 153 1044 q 101 996 103 994 q 103 1004 100 997 q 150 1118 111 1024 z "},"Î":{"ha":347,"x_min":24,"x_max":271,"o":"m 146 0 q 69 35 69 0 l 69 919 q 146 954 69 954 q 222 919 222 954 l 222 35 q 146 0 222 0 m 176 1097 l 249 1043 q 271 1019 271 1026 q 264 1006 271 1015 q 253 997 257 997 q 225 1013 246 997 l 154 1067 q 140 1067 147 1072 l 69 1013 q 42 997 49 997 q 30 1006 36 997 q 24 1019 24 1015 q 46 1043 24 1026 l 118 1097 q 147 1113 139 1113 q 176 1097 157 1113 z "},"Ï":{"ha":347,"x_min":-26,"x_max":324,"o":"m 146 0 q 69 35 69 0 l 69 919 q 146 954 69 954 q 222 919 222 954 l 222 35 q 146 0 222 0 m -26 1047 q -11 1085 -26 1069 q 25 1100 4 1100 q 63 1085 47 1100 q 78 1047 78 1069 q 63 1010 78 1025 q 25 994 47 994 q -11 1010 4 994 q -26 1047 -26 1025 m 219 1047 q 235 1085 219 1069 q 271 1100 250 1100 q 308 1085 293 1100 q 324 1047 324 1069 q 308 1010 324 1025 q 271 994 293 994 q 235 1010 250 994 q 219 1047 219 1025 z "},"Ð":{"ha":954,"x_min":-17,"x_max":843,"o":"m 50 465 l 18 465 q -7 467 -3 465 q -17 485 -17 469 q -7 503 -17 500 q 18 504 -4 504 l 50 504 q 69 528 69 504 l 69 919 q 146 954 69 954 l 372 954 q 713 818 582 954 q 843 475 843 682 q 686 126 843 261 q 324 0 538 0 l 146 0 q 69 35 69 0 l 69 447 q 50 465 69 465 m 307 485 q 297 467 307 469 q 272 465 293 465 l 243 465 q 222 447 222 465 l 222 61 q 242 42 222 42 l 347 42 q 661 160 526 42 q 804 472 804 285 q 672 792 804 661 q 369 919 546 917 q 235 911 274 921 q 222 892 222 908 l 222 526 q 242 504 222 504 l 272 504 q 297 503 293 504 q 307 485 307 500 z "},"Ñ":{"ha":914,"x_min":69,"x_max":756,"o":"m 121 942 q 688 599 315 822 q 708 588 706 588 q 718 617 718 588 l 718 919 q 718 944 718 940 q 736 954 721 954 q 754 944 751 954 q 756 919 756 940 l 756 35 q 754 10 756 14 q 736 0 751 0 q 718 10 721 0 q 718 35 718 13 l 718 388 q 700 421 718 410 q 146 753 546 518 q 122 761 132 761 q 108 742 108 761 l 108 35 q 107 10 108 14 q 89 0 104 0 q 71 10 74 0 q 69 35 69 13 l 69 919 q 71 944 69 940 q 89 954 74 954 q 121 942 101 954 m 304 1054 q 372 1071 333 1076 q 426 1055 393 1067 q 479 1040 458 1043 q 547 1058 521 1035 q 560 1065 554 1065 q 568 1056 568 1065 q 557 1033 568 1044 q 478 1008 525 1001 q 423 1023 456 1011 q 368 1038 390 1035 q 328 1031 350 1040 q 303 1022 306 1022 q 293 1033 293 1022 q 304 1054 293 1046 z "},"Ò":{"ha":1110,"x_min":60,"x_max":994,"o":"m 60 458 q 198 814 60 664 q 538 964 336 964 q 871 824 747 964 q 994 461 994 683 q 867 124 994 260 q 538 -12 739 -12 q 191 117 322 -12 q 60 458 60 247 m 218 458 q 300 138 218 253 q 551 17 386 17 q 838 149 719 17 q 956 458 956 281 q 849 789 956 653 q 554 933 735 933 q 294 786 383 933 q 218 458 218 660 m 517 1122 q 481 1131 506 1146 q 474 1096 457 1117 q 558 1004 514 1049 q 565 1000 564 999 q 564 1008 567 1001 q 517 1122 556 1028 z "},"Ó":{"ha":1110,"x_min":60,"x_max":994,"o":"m 60 458 q 198 814 60 664 q 538 964 336 964 q 871 824 747 964 q 994 461 994 683 q 867 124 994 260 q 538 -12 739 -12 q 191 117 322 -12 q 60 458 60 247 m 218 458 q 300 138 218 253 q 551 17 386 17 q 838 149 719 17 q 956 458 956 281 q 849 789 956 653 q 554 933 735 933 q 294 786 383 933 q 218 458 218 660 m 543 1129 q 579 1138 554 1153 q 586 1103 603 1124 q 501 1011 546 1056 q 494 1007 496 1006 q 496 1015 493 1008 q 543 1129 504 1035 z "},"Ô":{"ha":1110,"x_min":60,"x_max":994,"o":"m 60 458 q 198 814 60 664 q 538 964 336 964 q 871 824 747 964 q 994 461 994 683 q 867 124 994 260 q 538 -12 739 -12 q 191 117 322 -12 q 60 458 60 247 m 218 458 q 300 138 218 253 q 551 17 386 17 q 838 149 719 17 q 956 458 956 281 q 849 789 956 653 q 554 933 735 933 q 294 786 383 933 q 218 458 218 660 m 576 1097 l 649 1043 q 671 1019 671 1026 q 664 1006 671 1015 q 653 997 657 997 q 625 1013 646 997 l 554 1067 q 540 1067 547 1072 l 469 1013 q 442 997 449 997 q 430 1006 436 997 q 424 1019 424 1015 q 446 1043 424 1026 l 518 1097 q 547 1113 539 1113 q 576 1097 557 1113 z "},"Õ":{"ha":1110,"x_min":60,"x_max":994,"o":"m 60 458 q 198 814 60 664 q 538 964 336 964 q 871 824 747 964 q 994 461 994 683 q 867 124 994 260 q 538 -12 739 -12 q 191 117 322 -12 q 60 458 60 247 m 218 458 q 300 138 218 253 q 551 17 386 17 q 838 149 719 17 q 956 458 956 281 q 849 789 956 653 q 554 933 735 933 q 294 786 383 933 q 218 458 218 660 m 431 1060 q 499 1076 460 1082 q 552 1060 519 1072 q 606 1046 585 1049 q 674 1064 647 1040 q 686 1071 681 1071 q 694 1061 694 1071 q 683 1039 694 1050 q 604 1014 651 1007 q 549 1028 582 1017 q 494 1043 517 1040 q 454 1037 476 1046 q 429 1028 432 1028 q 419 1039 419 1028 q 431 1060 419 1051 z "},"Ö":{"ha":1110,"x_min":60,"x_max":994,"o":"m 60 458 q 198 814 60 664 q 538 964 336 964 q 871 824 747 964 q 994 461 994 683 q 867 124 994 260 q 538 -12 739 -12 q 191 117 322 -12 q 60 458 60 247 m 218 458 q 300 138 218 253 q 551 17 386 17 q 838 149 719 17 q 956 458 956 281 q 849 789 956 653 q 554 933 735 933 q 294 786 383 933 q 218 458 218 660 m 353 1051 q 368 1089 353 1074 q 404 1104 383 1104 q 442 1089 426 1104 q 457 1051 457 1074 q 442 1014 457 1029 q 404 999 426 999 q 368 1014 383 999 q 353 1051 353 1029 m 599 1051 q 614 1089 599 1074 q 650 1104 629 1104 q 688 1089 672 1104 q 703 1051 703 1074 q 688 1014 703 1029 q 650 999 672 999 q 614 1014 629 999 q 599 1051 599 1029 z "},"×":{"ha":706,"x_min":115,"x_max":574,"o":"m 546 435 l 413 301 l 561 153 q 574 128 574 140 q 552 94 574 115 q 517 72 531 72 q 493 83 506 72 l 344 233 l 196 83 q 172 72 183 72 q 137 94 158 72 q 115 128 115 115 q 128 153 115 140 l 276 301 l 143 435 q 131 458 131 447 q 152 492 131 471 q 188 514 174 514 q 211 503 200 514 l 344 369 l 478 503 q 501 514 489 514 q 537 492 515 514 q 558 458 558 471 q 546 435 558 447 z "},"Ø":{"ha":1110,"x_min":60,"x_max":994,"o":"m 290 153 l 826 814 q 554 933 717 933 q 294 786 383 933 q 218 458 218 660 q 290 153 218 267 m 851 785 l 313 121 q 551 17 399 17 q 838 149 719 17 q 956 458 956 281 q 851 785 956 649 m 911 918 q 935 940 928 940 q 948 933 939 940 q 957 921 957 926 q 940 894 957 914 l 878 817 q 994 461 994 679 q 867 124 994 260 q 538 -12 739 -12 q 264 60 381 -12 l 185 -37 q 160 -60 167 -60 q 147 -52 156 -60 q 139 -40 139 -44 q 156 -14 139 -33 l 232 82 q 60 458 60 213 q 198 814 60 664 q 538 964 336 964 q 851 844 729 964 l 911 918 z "},"Ù":{"ha":946,"x_min":69,"x_max":821,"o":"m 486 32 q 706 149 626 32 q 779 429 779 257 l 779 931 q 797 953 779 950 q 821 928 821 956 l 821 450 q 729 115 821 233 q 447 -10 632 -10 q 126 169 221 -10 q 69 418 69 278 l 69 919 q 146 954 69 954 q 222 919 222 954 l 222 360 q 261 150 222 224 q 486 32 322 32 m 471 1122 q 435 1131 460 1146 q 428 1096 411 1117 q 513 1004 468 1049 q 519 1000 518 999 q 518 1008 521 1001 q 471 1122 510 1028 z "},"Ú":{"ha":946,"x_min":69,"x_max":821,"o":"m 486 32 q 706 149 626 32 q 779 429 779 257 l 779 931 q 797 953 779 950 q 821 928 821 956 l 821 450 q 729 115 821 233 q 447 -10 632 -10 q 126 169 221 -10 q 69 418 69 278 l 69 919 q 146 954 69 954 q 222 919 222 954 l 222 360 q 261 150 222 224 q 486 32 322 32 m 483 1113 q 519 1121 494 1136 q 526 1086 543 1107 q 442 994 486 1039 q 435 990 436 989 q 436 999 433 992 q 483 1113 444 1018 z "},"Û":{"ha":946,"x_min":69,"x_max":821,"o":"m 486 32 q 706 149 626 32 q 779 429 779 257 l 779 931 q 797 953 779 950 q 821 928 821 956 l 821 450 q 729 115 821 233 q 447 -10 632 -10 q 126 169 221 -10 q 69 418 69 278 l 69 919 q 146 954 69 954 q 222 919 222 954 l 222 360 q 261 150 222 224 q 486 32 322 32 m 524 1097 l 596 1043 q 618 1019 618 1026 q 611 1006 618 1015 q 600 997 604 997 q 572 1013 593 997 l 501 1067 q 488 1067 494 1072 l 417 1013 q 389 997 396 997 q 377 1006 383 997 q 371 1019 371 1015 q 393 1043 371 1026 l 465 1097 q 494 1113 486 1113 q 524 1097 504 1113 z "},"Ü":{"ha":946,"x_min":69,"x_max":821,"o":"m 486 32 q 706 149 626 32 q 779 429 779 257 l 779 931 q 797 953 779 950 q 821 928 821 956 l 821 450 q 729 115 821 233 q 447 -10 632 -10 q 126 169 221 -10 q 69 418 69 278 l 69 919 q 146 954 69 954 q 222 919 222 954 l 222 360 q 261 150 222 224 q 486 32 322 32 m 313 1047 q 328 1085 313 1069 q 364 1100 343 1100 q 401 1085 386 1100 q 417 1047 417 1069 q 401 1010 417 1025 q 364 994 386 994 q 328 1010 343 994 q 313 1047 313 1025 m 558 1047 q 574 1085 558 1069 q 610 1100 589 1100 q 647 1085 632 1100 q 663 1047 663 1069 q 647 1010 663 1025 q 610 994 632 994 q 574 1010 589 994 q 558 1047 558 1025 z "},"Ý":{"ha":969,"x_min":58,"x_max":858,"o":"m 560 278 l 560 35 q 483 0 560 0 q 407 35 407 0 l 407 240 q 394 283 404 254 q 78 903 219 617 q 65 919 76 907 q 58 936 58 928 q 121 958 58 958 q 182 958 182 958 q 225 932 214 954 q 508 376 311 763 q 528 358 518 358 q 549 379 539 358 l 814 943 q 843 958 824 963 q 858 946 853 956 q 858 925 863 935 q 569 322 735 671 q 560 278 560 301 m 513 1114 q 549 1122 524 1138 q 556 1088 572 1108 q 471 996 515 1040 q 464 992 465 990 q 465 1000 463 993 q 513 1114 474 1019 z "},"Þ":{"ha":829,"x_min":69,"x_max":707,"o":"m 222 233 q 251 217 228 221 q 333 210 296 208 q 572 283 481 213 q 664 472 664 354 q 269 786 664 786 q 222 779 224 786 l 222 233 m 146 0 q 69 35 69 0 l 69 919 q 146 954 69 954 q 222 919 222 954 l 222 828 q 283 831 251 831 q 563 760 450 831 q 707 483 707 669 q 613 264 707 353 q 357 168 514 171 q 256 178 306 167 q 231 171 242 181 q 222 149 219 161 l 222 35 q 146 0 222 0 z "},"ß":{"ha":690,"x_min":115,"x_max":607,"o":"m 221 825 l 221 31 q 203 3 221 8 q 168 0 196 0 q 133 3 140 0 q 115 31 115 8 l 115 728 q 157 882 115 814 q 282 961 204 961 q 344 939 322 961 q 353 922 353 931 q 336 907 353 907 q 319 911 328 907 q 282 922 297 922 q 221 825 221 922 m 469 385 q 572 353 538 385 q 578 339 578 347 q 561 324 578 324 q 544 329 554 324 q 474 351 510 351 q 415 317 415 351 q 494 244 415 300 q 571 189 565 194 q 607 114 607 156 q 563 29 607 64 q 461 -6 518 -6 q 342 40 383 -6 q 333 58 333 50 q 350 75 333 75 q 365 68 358 75 q 449 26 410 26 q 535 67 535 26 q 446 156 535 92 q 372 208 408 182 q 336 279 336 240 q 376 355 336 325 q 469 385 417 385 z "},"à":{"ha":553,"x_min":69,"x_max":465,"o":"m 258 342 q 151 293 194 342 q 108 179 108 244 q 147 72 108 115 q 253 28 186 28 q 360 75 324 28 l 360 290 q 258 342 321 342 m 264 376 q 360 344 317 376 l 360 346 q 378 374 360 368 q 413 376 383 376 q 447 374 440 376 q 465 346 465 368 l 465 31 q 447 3 465 8 q 413 0 440 0 q 378 3 383 0 q 360 31 360 8 q 244 -10 311 -10 q 119 42 168 -10 q 69 169 69 94 q 123 319 69 261 q 264 376 176 376 m 269 624 q 233 632 258 647 q 226 597 210 618 q 311 506 267 550 q 318 501 317 500 q 317 510 319 503 q 269 624 308 529 z "},"á":{"ha":553,"x_min":69,"x_max":465,"o":"m 258 342 q 151 293 194 342 q 108 179 108 244 q 147 72 108 115 q 253 28 186 28 q 360 75 324 28 l 360 290 q 258 342 321 342 m 264 376 q 360 344 317 376 l 360 346 q 378 374 360 368 q 413 376 383 376 q 447 374 440 376 q 465 346 465 368 l 465 31 q 447 3 465 8 q 413 0 440 0 q 378 3 383 0 q 360 31 360 8 q 244 -10 311 -10 q 119 42 168 -10 q 69 169 69 94 q 123 319 69 261 q 264 376 176 376 m 294 624 q 331 632 306 647 q 338 597 354 618 q 253 506 297 550 q 246 501 247 500 q 247 510 244 503 q 294 624 256 529 z "},"â":{"ha":553,"x_min":69,"x_max":465,"o":"m 258 342 q 151 293 194 342 q 108 179 108 244 q 147 72 108 115 q 253 28 186 28 q 360 75 324 28 l 360 290 q 258 342 321 342 m 264 376 q 360 344 317 376 l 360 346 q 378 374 360 368 q 413 376 383 376 q 447 374 440 376 q 465 346 465 368 l 465 31 q 447 3 465 8 q 413 0 440 0 q 378 3 383 0 q 360 31 360 8 q 244 -10 311 -10 q 119 42 168 -10 q 69 169 69 94 q 123 319 69 261 q 264 376 176 376 m 286 572 l 358 518 q 381 494 381 501 q 374 481 381 490 q 363 472 367 472 q 335 488 356 472 l 264 542 q 250 542 257 547 l 179 488 q 151 472 158 472 q 140 481 146 472 q 133 494 133 490 q 156 518 133 501 l 228 572 q 257 588 249 588 q 286 572 267 588 z "},"ã":{"ha":553,"x_min":69,"x_max":465,"o":"m 258 342 q 151 293 194 342 q 108 179 108 244 q 147 72 108 115 q 253 28 186 28 q 360 75 324 28 l 360 290 q 258 342 321 342 m 264 376 q 360 344 317 376 l 360 346 q 378 374 360 368 q 413 376 383 376 q 447 374 440 376 q 465 346 465 368 l 465 31 q 447 3 465 8 q 413 0 440 0 q 378 3 383 0 q 360 31 360 8 q 244 -10 311 -10 q 119 42 168 -10 q 69 169 69 94 q 123 319 69 261 q 264 376 176 376 m 151 529 q 219 546 181 551 q 273 530 240 542 q 326 515 306 518 q 394 533 368 510 q 407 540 401 540 q 415 531 415 540 q 404 508 415 519 q 325 483 372 476 q 270 498 303 486 q 215 513 238 510 q 175 506 197 515 q 150 497 153 497 q 140 508 140 497 q 151 529 140 521 z "},"ä":{"ha":553,"x_min":69,"x_max":465,"o":"m 258 342 q 151 293 194 342 q 108 179 108 244 q 147 72 108 115 q 253 28 186 28 q 360 75 324 28 l 360 290 q 258 342 321 342 m 264 376 q 360 344 317 376 l 360 346 q 378 374 360 368 q 413 376 383 376 q 447 374 440 376 q 465 346 465 368 l 465 31 q 447 3 465 8 q 413 0 440 0 q 378 3 383 0 q 360 31 360 8 q 244 -10 311 -10 q 119 42 168 -10 q 69 169 69 94 q 123 319 69 261 q 264 376 176 376 m 106 528 q 121 565 106 550 q 157 581 136 581 q 194 565 179 581 q 210 528 210 550 q 194 490 210 506 q 157 475 179 475 q 121 490 136 475 q 106 528 106 506 m 351 528 q 367 565 351 550 q 403 581 382 581 q 440 565 425 581 q 456 528 456 550 q 440 490 456 506 q 403 475 425 475 q 367 490 382 475 q 351 528 351 506 z "},"å":{"ha":553,"x_min":69,"x_max":465,"o":"m 258 342 q 151 293 194 342 q 108 179 108 244 q 147 72 108 115 q 253 28 186 28 q 360 75 324 28 l 360 290 q 258 342 321 342 m 264 376 q 360 344 317 376 l 360 346 q 378 374 360 368 q 413 376 383 376 q 447 374 440 376 q 465 346 465 368 l 465 31 q 447 3 465 8 q 413 0 440 0 q 378 3 383 0 q 360 31 360 8 q 244 -10 311 -10 q 119 42 168 -10 q 69 169 69 94 q 123 319 69 261 q 264 376 176 376 m 165 581 q 194 648 165 619 q 263 676 222 676 q 331 648 303 676 q 360 581 360 619 q 331 512 360 540 q 263 483 303 483 q 194 512 222 483 q 165 581 165 540 m 204 581 q 222 539 204 556 q 263 522 239 522 q 303 539 286 522 q 321 581 321 556 q 303 621 321 604 q 263 638 286 638 q 222 621 239 638 q 204 581 204 604 z "},"æ":{"ha":781,"x_min":69,"x_max":711,"o":"m 258 351 q 151 303 194 351 q 108 189 108 254 q 146 79 108 124 q 253 31 186 31 q 360 75 326 31 l 360 290 q 258 351 313 351 m 543 178 q 631 205 592 178 q 669 275 669 232 q 574 349 669 349 q 481 310 504 349 q 471 213 472 274 q 499 186 469 196 q 543 178 522 178 m 538 147 q 515 147 526 147 q 485 140 499 149 q 472 114 471 131 q 481 54 475 78 q 515 28 493 33 q 563 25 525 25 q 660 56 610 25 q 672 60 667 60 q 683 47 683 60 q 676 31 683 38 q 563 -10 631 -10 q 403 65 461 -10 q 244 -7 335 -7 q 119 49 169 -7 q 69 179 69 104 q 123 328 69 271 q 264 386 176 386 q 403 303 350 386 q 585 386 467 386 q 669 360 631 386 q 711 283 711 329 q 665 182 711 217 q 538 147 618 147 z "},"ç":{"ha":440,"x_min":58,"x_max":369,"o":"m 249 -11 l 249 -57 l 276 -57 q 340 -78 311 -57 q 369 -129 368 -100 q 333 -222 371 -196 q 235 -244 303 -244 l 183 -246 l 183 -212 l 240 -207 q 315 -150 315 -200 q 253 -104 315 -104 l 215 -104 l 215 -7 q 103 62 147 8 q 58 186 58 115 q 117 326 58 268 q 260 383 175 383 q 360 339 310 383 q 367 322 367 332 q 356 310 367 310 q 343 314 350 310 q 260 349 288 349 q 176 314 197 349 q 167 186 167 267 q 176 58 167 106 q 260 24 197 24 q 343 58 288 24 q 356 63 350 63 q 367 50 367 63 q 360 33 367 40 q 260 -11 310 -11 q 249 -11 254 -11 z "},"è":{"ha":463,"x_min":39,"x_max":388,"o":"m 219 178 q 307 205 268 178 q 346 275 346 232 q 250 349 346 349 q 157 310 181 349 q 147 213 149 274 q 175 186 146 196 q 219 178 199 178 m 214 147 q 192 147 203 147 q 161 140 175 149 q 149 114 147 131 q 157 54 151 78 q 192 28 169 33 q 239 25 201 25 q 336 56 286 25 q 349 60 343 60 q 360 47 360 60 q 353 31 360 38 q 239 -10 307 -10 q 97 45 154 -10 q 39 182 39 100 q 101 326 39 267 q 261 386 163 386 q 346 360 307 386 q 388 283 388 329 q 341 182 388 217 q 214 147 294 147 m 229 624 q 193 632 218 647 q 186 597 169 618 q 271 506 226 550 q 278 501 276 500 q 276 510 279 503 q 229 624 268 529 z "},"é":{"ha":463,"x_min":39,"x_max":388,"o":"m 219 178 q 307 205 268 178 q 346 275 346 232 q 250 349 346 349 q 157 310 181 349 q 147 213 149 274 q 175 186 146 196 q 219 178 199 178 m 214 147 q 192 147 203 147 q 161 140 175 149 q 149 114 147 131 q 157 54 151 78 q 192 28 169 33 q 239 25 201 25 q 336 56 286 25 q 349 60 343 60 q 360 47 360 60 q 353 31 360 38 q 239 -10 307 -10 q 97 45 154 -10 q 39 182 39 100 q 101 326 39 267 q 261 386 163 386 q 346 360 307 386 q 388 283 388 329 q 341 182 388 217 q 214 147 294 147 m 217 624 q 253 632 228 647 q 260 597 276 618 q 175 506 219 550 q 168 501 169 500 q 169 510 167 503 q 217 624 178 529 z "},"ê":{"ha":463,"x_min":39,"x_max":388,"o":"m 219 178 q 307 205 268 178 q 346 275 346 232 q 250 349 346 349 q 157 310 181 349 q 147 213 149 274 q 175 186 146 196 q 219 178 199 178 m 214 147 q 192 147 203 147 q 161 140 175 149 q 149 114 147 131 q 157 54 151 78 q 192 28 169 33 q 239 25 201 25 q 336 56 286 25 q 349 60 343 60 q 360 47 360 60 q 353 31 360 38 q 239 -10 307 -10 q 97 45 154 -10 q 39 182 39 100 q 101 326 39 267 q 261 386 163 386 q 346 360 307 386 q 388 283 388 329 q 341 182 388 217 q 214 147 294 147 m 257 572 l 329 518 q 351 494 351 501 q 344 481 351 490 q 333 472 338 472 q 306 488 326 472 l 235 542 q 221 542 228 547 l 150 488 q 122 472 129 472 q 110 481 117 472 q 104 494 104 490 q 126 518 104 501 l 199 572 q 228 588 219 588 q 257 572 238 588 z "},"ë":{"ha":463,"x_min":39,"x_max":415,"o":"m 219 178 q 307 205 268 178 q 346 275 346 232 q 250 349 346 349 q 157 310 181 349 q 147 213 149 274 q 175 186 146 196 q 219 178 199 178 m 214 147 q 192 147 203 147 q 161 140 175 149 q 149 114 147 131 q 157 54 151 78 q 192 28 169 33 q 239 25 201 25 q 336 56 286 25 q 349 60 343 60 q 360 47 360 60 q 353 31 360 38 q 239 -10 307 -10 q 97 45 154 -10 q 39 182 39 100 q 101 326 39 267 q 261 386 163 386 q 346 360 307 386 q 388 283 388 329 q 341 182 388 217 q 214 147 294 147 m 65 528 q 81 565 65 550 q 117 581 96 581 q 154 565 139 581 q 169 528 169 550 q 154 490 169 506 q 117 475 139 475 q 81 490 96 475 q 65 528 65 506 m 311 528 q 326 565 311 550 q 363 581 342 581 q 400 565 385 581 q 415 528 415 550 q 400 490 415 506 q 363 475 385 475 q 326 490 342 475 q 311 528 311 506 z "},"ì":{"ha":256,"x_min":68,"x_max":174,"o":"m 121 0 q 86 3 92 0 q 68 31 68 8 l 68 347 q 86 375 68 369 q 121 378 92 378 q 156 375 149 378 q 174 347 174 369 l 174 31 q 156 3 174 8 q 121 0 149 0 m 124 624 q 88 632 113 647 q 81 597 64 618 q 165 506 121 550 q 172 501 171 500 q 171 510 174 503 q 124 624 163 529 z "},"í":{"ha":256,"x_min":68,"x_max":174,"o":"m 121 0 q 86 3 92 0 q 68 31 68 8 l 68 347 q 86 375 68 369 q 121 378 92 378 q 156 375 149 378 q 174 347 174 369 l 174 31 q 156 3 174 8 q 121 0 149 0 m 125 624 q 161 632 136 647 q 168 597 185 618 q 83 506 128 550 q 76 501 78 500 q 78 510 75 503 q 125 624 86 529 z "},"î":{"ha":256,"x_min":0,"x_max":247,"o":"m 121 0 q 86 3 92 0 q 68 31 68 8 l 68 347 q 86 375 68 369 q 121 378 92 378 q 156 375 149 378 q 174 347 174 369 l 174 31 q 156 3 174 8 q 121 0 149 0 m 153 572 l 225 518 q 247 494 247 501 q 240 481 247 490 q 229 472 233 472 q 201 488 222 472 l 131 542 q 117 542 124 547 l 46 488 q 18 472 25 472 q 6 481 13 472 q 0 494 0 490 q 22 518 0 501 l 94 572 q 124 588 115 588 q 153 572 133 588 z "},"ï":{"ha":256,"x_min":-71,"x_max":279,"o":"m 121 0 q 86 3 92 0 q 68 31 68 8 l 68 347 q 86 375 68 369 q 121 378 92 378 q 156 375 149 378 q 174 347 174 369 l 174 31 q 156 3 174 8 q 121 0 149 0 m -71 528 q -56 565 -71 550 q -19 581 -40 581 q 18 565 3 581 q 33 528 33 550 q 18 490 33 506 q -19 475 3 475 q -56 490 -40 475 q -71 528 -71 506 m 175 528 q 190 565 175 550 q 226 581 206 581 q 264 565 249 581 q 279 528 279 550 q 264 490 279 506 q 226 475 249 475 q 190 490 206 475 q 175 528 175 506 z "},"ð":{"ha":536,"x_min":60,"x_max":497,"o":"m 371 63 q 382 83 371 63 q 393 183 393 103 q 379 314 393 253 q 296 349 358 349 q 177 303 222 349 q 132 188 132 257 q 176 71 132 118 q 296 24 221 24 q 371 63 349 24 m 458 760 q 461 752 458 760 q 458 736 464 744 q 436 724 454 732 l 363 689 q 490 326 475 511 q 497 225 497 233 q 290 -11 497 -12 q 152 47 210 -11 q 94 186 94 106 q 153 326 94 268 q 296 383 213 383 q 371 369 335 383 q 290 656 353 517 l 214 621 q 188 613 196 613 q 172 628 179 613 q 167 642 167 638 q 193 664 167 651 l 269 700 q 88 893 192 850 q 60 914 60 904 q 81 922 60 922 q 97 919 89 922 q 335 731 229 876 l 415 768 q 442 776 433 776 q 458 760 451 776 z "},"ñ":{"ha":525,"x_min":69,"x_max":446,"o":"m 446 258 l 446 31 q 428 3 446 8 q 393 0 421 0 q 358 3 364 0 q 340 31 340 8 l 340 301 q 321 340 340 332 q 281 344 311 344 q 213 318 250 344 q 175 271 175 292 l 175 31 q 157 3 175 8 q 122 0 150 0 q 88 3 93 0 q 69 31 69 8 l 69 350 q 88 378 69 372 q 122 381 93 381 q 157 378 150 381 q 175 350 175 372 q 178 338 175 338 q 196 347 181 338 q 307 385 254 385 q 404 348 363 385 q 446 258 446 311 m 129 529 q 197 546 158 551 q 251 530 218 542 q 304 515 283 518 q 372 533 346 510 q 385 540 379 540 q 393 531 393 540 q 382 508 393 519 q 303 483 350 476 q 248 498 281 486 q 193 513 215 510 q 153 506 175 515 q 128 497 131 497 q 118 508 118 497 q 129 529 118 521 z "},"ò":{"ha":536,"x_min":64,"x_max":467,"o":"m 64 186 q 123 326 64 268 q 265 383 182 383 q 408 326 349 383 q 467 186 467 268 q 408 47 467 104 q 265 -11 349 -11 q 123 47 182 -11 q 64 186 64 104 m 182 314 q 172 186 172 267 q 182 58 172 106 q 265 24 203 24 q 384 69 339 24 q 429 185 429 115 q 385 301 429 254 q 265 349 340 349 q 182 314 203 349 m 260 624 q 224 632 249 647 q 217 597 200 618 q 301 506 257 550 q 308 501 307 500 q 307 510 310 503 q 260 624 299 529 z "},"ó":{"ha":536,"x_min":64,"x_max":467,"o":"m 64 186 q 123 326 64 268 q 265 383 182 383 q 408 326 349 383 q 467 186 467 268 q 408 47 467 104 q 265 -11 349 -11 q 123 47 182 -11 q 64 186 64 104 m 182 314 q 172 186 172 267 q 182 58 172 106 q 265 24 203 24 q 384 69 339 24 q 429 185 429 115 q 385 301 429 254 q 265 349 340 349 q 182 314 203 349 m 251 624 q 288 632 263 647 q 294 597 311 618 q 210 506 254 550 q 203 501 204 500 q 204 510 201 503 q 251 624 213 529 z "},"ô":{"ha":536,"x_min":64,"x_max":467,"o":"m 64 186 q 123 326 64 268 q 265 383 182 383 q 408 326 349 383 q 467 186 467 268 q 408 47 467 104 q 265 -11 349 -11 q 123 47 182 -11 q 64 186 64 104 m 182 314 q 172 186 172 267 q 182 58 172 106 q 265 24 203 24 q 384 69 339 24 q 429 185 429 115 q 385 301 429 254 q 265 349 340 349 q 182 314 203 349 m 296 572 l 368 518 q 390 494 390 501 q 383 481 390 490 q 372 472 376 472 q 344 488 365 472 l 274 542 q 260 542 267 547 l 189 488 q 161 472 168 472 q 149 481 156 472 q 143 494 143 490 q 165 518 143 501 l 238 572 q 267 588 258 588 q 296 572 276 588 z "},"õ":{"ha":536,"x_min":64,"x_max":467,"o":"m 64 186 q 123 326 64 268 q 265 383 182 383 q 408 326 349 383 q 467 186 467 268 q 408 47 467 104 q 265 -11 349 -11 q 123 47 182 -11 q 64 186 64 104 m 182 314 q 172 186 172 267 q 182 58 172 106 q 265 24 203 24 q 384 69 339 24 q 429 185 429 115 q 385 301 429 254 q 265 349 340 349 q 182 314 203 349 m 126 529 q 194 546 156 551 q 248 530 215 542 q 301 515 281 518 q 369 533 343 510 q 382 540 376 540 q 390 531 390 540 q 379 508 390 519 q 300 483 347 476 q 245 498 278 486 q 190 513 213 510 q 150 506 172 515 q 125 497 128 497 q 115 508 115 497 q 126 529 115 521 z "},"ö":{"ha":536,"x_min":64,"x_max":467,"o":"m 64 186 q 123 326 64 268 q 265 383 182 383 q 408 326 349 383 q 467 186 467 268 q 408 47 467 104 q 265 -11 349 -11 q 123 47 182 -11 q 64 186 64 104 m 182 314 q 172 186 172 267 q 182 58 172 106 q 265 24 203 24 q 384 69 339 24 q 429 185 429 115 q 385 301 429 254 q 265 349 340 349 q 182 314 203 349 m 81 528 q 96 565 81 550 q 132 581 111 581 q 169 565 154 581 q 185 528 185 550 q 169 490 185 506 q 132 475 154 475 q 96 490 111 475 q 81 528 81 506 m 326 528 q 342 565 326 550 q 378 581 357 581 q 415 565 400 581 q 431 528 431 550 q 415 490 431 506 q 378 475 400 475 q 342 490 357 475 q 326 528 326 506 z "},"÷":{"ha":506,"x_min":46,"x_max":433,"o":"m 243 269 q 194 221 194 269 q 243 171 194 171 q 292 221 292 171 q 243 269 292 269 m 250 472 q 301 522 301 469 q 256 571 301 568 q 203 521 203 574 q 250 472 203 475 m 46 407 l 46 361 l 433 361 l 433 407 l 46 407 z "},"ø":{"ha":511,"x_min":39,"x_max":442,"o":"m 39 186 q 98 326 39 268 q 240 383 157 383 q 329 363 288 383 l 386 439 q 400 447 392 447 q 418 429 418 447 q 414 419 418 424 l 360 344 q 442 186 442 286 q 383 47 442 104 q 240 -11 324 -11 q 122 26 175 -11 l 74 -39 q 60 -47 68 -47 q 42 -29 42 -47 q 46 -19 42 -24 l 96 49 q 39 186 39 106 m 154 69 q 157 58 156 64 q 240 24 178 24 q 359 69 314 24 q 404 185 404 115 q 340 319 404 272 l 154 69 m 157 314 q 146 186 147 267 q 149 119 146 151 l 310 336 q 240 349 278 349 q 157 314 178 349 z "},"ù":{"ha":526,"x_min":69,"x_max":446,"o":"m 69 122 l 69 350 q 88 379 69 372 q 122 381 94 381 q 157 378 151 381 q 175 350 175 372 l 175 79 q 194 40 175 49 q 235 36 204 36 q 303 63 265 36 q 340 110 340 89 l 340 350 q 358 379 340 372 q 393 381 365 381 q 428 378 422 381 q 446 350 446 372 l 446 31 q 428 3 446 8 q 393 0 422 0 q 358 3 365 0 q 340 31 340 8 q 338 43 340 43 q 319 33 335 43 q 208 -4 261 -4 q 111 33 153 -4 q 69 122 69 69 m 260 624 q 224 632 249 647 q 217 597 200 618 q 301 506 257 550 q 308 501 307 500 q 307 510 310 503 q 260 624 299 529 z "},"ú":{"ha":526,"x_min":69,"x_max":446,"o":"m 69 122 l 69 350 q 88 379 69 372 q 122 381 94 381 q 157 378 151 381 q 175 350 175 372 l 175 79 q 194 40 175 49 q 235 36 204 36 q 303 63 265 36 q 340 110 340 89 l 340 350 q 358 379 340 372 q 393 381 365 381 q 428 378 422 381 q 446 350 446 372 l 446 31 q 428 3 446 8 q 393 0 422 0 q 358 3 365 0 q 340 31 340 8 q 338 43 340 43 q 319 33 335 43 q 208 -4 261 -4 q 111 33 153 -4 q 69 122 69 69 m 263 624 q 299 632 274 647 q 306 597 322 618 q 221 506 265 550 q 214 501 215 500 q 215 510 213 503 q 263 624 224 529 z "},"û":{"ha":526,"x_min":69,"x_max":446,"o":"m 69 122 l 69 350 q 88 379 69 372 q 122 381 94 381 q 157 378 151 381 q 175 350 175 372 l 175 79 q 194 40 175 49 q 235 36 204 36 q 303 63 265 36 q 340 110 340 89 l 340 350 q 358 379 340 372 q 393 381 365 381 q 428 378 422 381 q 446 350 446 372 l 446 31 q 428 3 446 8 q 393 0 422 0 q 358 3 365 0 q 340 31 340 8 q 338 43 340 43 q 319 33 335 43 q 208 -4 261 -4 q 111 33 153 -4 q 69 122 69 69 m 283 572 l 356 518 q 378 494 378 501 q 371 481 378 490 q 360 472 364 472 q 332 488 353 472 l 261 542 q 247 542 254 547 l 176 488 q 149 472 156 472 q 137 481 143 472 q 131 494 131 490 q 153 518 131 501 l 225 572 q 254 588 246 588 q 283 572 264 588 z "},"ü":{"ha":526,"x_min":69,"x_max":446,"o":"m 69 122 l 69 350 q 88 379 69 372 q 122 381 94 381 q 157 378 151 381 q 175 350 175 372 l 175 79 q 194 40 175 49 q 235 36 204 36 q 303 63 265 36 q 340 110 340 89 l 340 350 q 358 379 340 372 q 393 381 365 381 q 428 378 422 381 q 446 350 446 372 l 446 31 q 428 3 446 8 q 393 0 422 0 q 358 3 365 0 q 340 31 340 8 q 338 43 340 43 q 319 33 335 43 q 208 -4 261 -4 q 111 33 153 -4 q 69 122 69 69 m 78 528 q 93 565 78 550 q 129 581 108 581 q 167 565 151 581 q 182 528 182 550 q 167 490 182 506 q 129 475 151 475 q 93 490 108 475 q 78 528 78 506 m 324 528 q 339 565 324 550 q 375 581 354 581 q 413 565 397 581 q 428 528 428 550 q 413 490 428 506 q 375 475 397 475 q 339 490 354 475 q 324 528 324 506 z "},"ý":{"ha":526,"x_min":69,"x_max":446,"o":"m 290 -239 q 260 -222 260 -246 q 271 -207 260 -212 q 340 -107 340 -176 l 340 35 q 336 47 340 47 q 319 38 335 47 q 208 0 261 0 q 111 37 153 0 q 69 126 69 74 l 69 354 q 88 382 69 376 q 122 385 94 385 q 157 382 151 383 q 175 354 175 376 l 175 83 q 194 44 175 53 q 235 40 204 40 q 303 67 265 40 q 340 114 340 93 l 340 354 q 358 382 340 376 q 393 385 364 383 q 428 382 421 385 q 446 354 446 376 l 446 -47 q 400 -169 446 -111 q 290 -239 354 -226 m 285 624 q 321 632 296 647 q 328 597 344 618 q 243 506 288 550 q 236 501 238 500 q 238 510 235 503 q 285 624 246 529 z "},"þ":{"ha":529,"x_min":69,"x_max":460,"o":"m 175 85 l 175 292 q 281 350 199 350 q 385 306 344 350 q 421 206 421 264 q 380 84 421 136 q 281 32 339 32 q 175 85 203 32 m 122 958 q 88 956 94 958 q 69 928 69 950 l 69 -206 q 88 -233 69 -228 q 122 -236 93 -236 q 157 -233 150 -236 q 175 -206 175 -228 l 175 0 q 196 18 175 29 q 283 0 233 0 q 414 67 363 0 q 460 204 460 126 q 410 333 460 282 q 275 383 361 383 q 183 354 219 383 q 175 361 175 347 l 175 928 q 158 956 175 950 q 122 958 151 958 z "},"ÿ":{"ha":526,"x_min":69,"x_max":446,"o":"m 290 -239 q 260 -222 260 -246 q 271 -207 260 -212 q 340 -107 340 -176 l 340 35 q 336 47 340 47 q 319 38 335 47 q 208 0 261 0 q 111 37 153 0 q 69 126 69 74 l 69 354 q 88 382 69 376 q 122 385 94 385 q 157 382 151 383 q 175 354 175 376 l 175 83 q 194 44 175 53 q 235 40 204 40 q 303 67 265 40 q 340 114 340 93 l 340 354 q 358 382 340 376 q 393 385 364 383 q 428 382 421 385 q 446 354 446 376 l 446 -47 q 400 -169 446 -111 q 290 -239 354 -226 m 81 528 q 96 565 81 550 q 132 581 111 581 q 169 565 154 581 q 185 528 185 550 q 169 490 185 506 q 132 475 154 475 q 96 490 111 475 q 81 528 81 506 m 326 528 q 342 565 326 550 q 378 581 357 581 q 415 565 400 581 q 431 528 431 550 q 415 490 431 506 q 378 475 400 475 q 342 490 357 475 q 326 528 326 506 z "},"ı":{"ha":256,"x_min":68,"x_max":174,"o":"m 121 0 q 86 3 92 0 q 68 31 68 8 l 68 347 q 86 375 68 369 q 121 378 92 378 q 156 375 149 378 q 174 347 174 369 l 174 31 q 156 3 174 8 q 121 0 149 0 z "},"Ł":{"ha":657,"x_min":-26,"x_max":607,"o":"m 315 618 q 314 597 321 604 q 293 585 313 594 l 239 556 q 222 524 222 546 l 222 57 q 243 39 222 39 l 572 39 q 597 38 594 39 q 607 19 607 35 q 597 1 607 4 q 572 0 593 0 l 146 0 q 69 35 69 0 l 69 447 q 51 456 69 465 l 18 438 q -10 426 -3 426 q -21 436 -15 426 q -26 449 -26 446 q 0 471 -26 457 l 49 497 q 69 538 69 508 l 69 919 q 146 954 69 954 q 222 919 222 954 l 222 613 q 229 596 222 594 q 239 599 232 596 l 275 618 q 303 629 296 629 q 315 618 308 629 z "},"ł":{"ha":276,"x_min":-17,"x_max":278,"o":"m 185 931 q 167 958 185 953 q 132 961 160 961 q 97 958 103 961 q 79 931 79 953 l 79 538 q 58 497 79 508 l 10 471 q -17 449 -17 457 q -11 436 -17 446 q 0 426 -6 426 q 28 438 7 426 l 61 456 q 79 447 79 465 l 79 31 q 97 3 79 8 q 132 0 103 0 q 167 3 160 0 q 185 31 185 8 l 185 499 q 201 531 185 522 l 256 560 q 276 572 275 571 q 278 593 283 579 q 265 604 272 604 q 238 593 258 604 l 201 574 q 185 588 185 565 l 185 931 z "},"Œ":{"ha":1165,"x_min":60,"x_max":1118,"o":"m 553 28 l 553 926 q 294 783 382 926 q 218 458 218 658 q 300 143 218 254 q 551 28 385 28 l 553 28 m 729 654 l 1083 654 q 1108 653 1104 654 q 1118 635 1118 650 q 1108 617 1118 619 q 1083 615 1106 615 l 726 615 q 706 597 706 615 l 706 56 q 722 39 706 39 l 1057 39 q 1087 35 1082 39 q 1092 19 1092 32 q 1082 1 1092 4 q 1057 0 1079 0 l 629 0 q 583 -1 617 0 q 538 -1 554 -1 q 190 124 321 -1 q 60 458 60 249 q 198 810 60 664 q 538 957 336 957 q 583 956 553 957 q 629 954 614 954 l 1036 954 q 1061 953 1057 954 q 1071 935 1071 950 q 1061 917 1071 919 q 1036 917 1058 917 l 726 917 q 706 897 706 917 l 706 675 q 729 654 706 654 z "},"œ":{"ha":822,"x_min":39,"x_max":753,"o":"m 157 314 q 147 186 147 267 q 157 58 147 106 q 240 24 178 24 q 359 69 314 24 q 404 185 404 115 q 360 301 404 254 q 240 349 315 349 q 157 314 178 349 m 585 178 q 672 205 633 178 q 711 275 711 232 q 615 349 711 349 q 522 310 546 349 q 513 213 514 274 q 540 186 511 196 q 585 178 564 178 m 579 147 q 557 147 568 147 q 526 140 540 149 q 514 114 513 131 q 522 54 517 78 q 557 28 535 33 q 604 25 567 25 q 701 56 651 25 q 714 60 708 60 q 725 47 725 60 q 718 31 725 38 q 604 -10 672 -10 q 422 101 474 -10 q 348 19 397 50 q 240 -11 299 -11 q 98 47 157 -11 q 39 186 39 104 q 98 326 39 268 q 240 383 157 383 q 349 351 300 383 q 424 268 399 319 q 626 386 479 386 q 711 360 672 386 q 753 283 753 329 q 706 182 753 217 q 579 147 660 147 z "},"Š":{"ha":793,"x_min":69,"x_max":711,"o":"m 108 207 q 88 229 107 229 q 69 201 68 229 q 160 49 75 110 q 365 -12 246 -12 q 607 60 513 -12 q 711 276 711 138 q 636 449 711 375 q 465 565 590 496 q 340 647 372 617 q 282 775 282 703 q 349 892 282 849 q 494 932 410 932 q 553 918 514 932 q 583 936 578 910 q 567 954 586 950 q 506 964 532 963 q 283 899 379 971 q 183 704 183 822 q 260 532 183 601 q 411 431 279 514 q 539 342 513 367 q 596 214 596 288 q 524 72 596 124 q 364 25 458 25 q 192 75 267 25 q 108 207 113 126 m 503 1011 l 574 1064 q 596 1089 596 1082 q 589 1101 596 1092 q 578 1110 582 1110 q 550 1094 571 1110 l 479 1042 q 467 1042 472 1036 l 394 1094 q 367 1110 374 1110 q 356 1101 363 1110 q 349 1089 349 1092 q 371 1064 349 1082 l 443 1011 q 472 996 464 996 q 503 1011 482 996 z "},"š":{"ha":424,"x_min":69,"x_max":343,"o":"m 206 385 q 308 353 274 385 q 315 339 315 347 q 299 324 315 324 q 281 329 290 324 q 210 351 247 351 q 151 317 151 351 q 231 244 151 300 q 308 189 301 194 q 343 114 343 156 q 299 29 343 64 q 197 -6 254 -6 q 78 40 121 -6 q 69 58 69 50 q 86 75 69 75 q 101 68 94 75 q 185 26 147 26 q 271 67 271 26 q 182 156 271 92 q 108 208 146 182 q 72 279 72 240 q 113 355 72 325 q 206 385 154 385 m 247 492 l 318 544 q 340 569 340 563 q 333 581 340 572 q 322 590 326 590 q 294 575 315 590 l 224 522 q 211 522 217 517 l 139 575 q 111 590 118 590 q 100 581 107 590 q 93 569 93 572 q 115 544 93 563 l 188 492 q 217 476 208 476 q 247 492 226 476 z "},"Ÿ":{"ha":969,"x_min":58,"x_max":858,"o":"m 560 278 l 560 35 q 483 0 560 0 q 407 35 407 0 l 407 240 q 394 283 404 254 q 78 903 219 617 q 65 919 76 907 q 58 936 58 928 q 121 958 58 958 q 182 958 182 958 q 225 932 214 954 q 508 376 311 763 q 528 358 518 358 q 549 379 539 358 l 814 943 q 843 958 824 963 q 858 946 853 956 q 858 925 863 935 q 569 322 735 671 q 560 278 560 301 m 319 1057 q 335 1094 319 1079 q 371 1110 350 1110 q 408 1094 393 1110 q 424 1057 424 1079 q 408 1019 424 1035 q 371 1004 393 1004 q 335 1019 350 1004 q 319 1057 319 1035 m 565 1057 q 581 1094 565 1079 q 617 1110 596 1110 q 654 1094 639 1110 q 669 1057 669 1079 q 654 1019 669 1035 q 617 1004 639 1004 q 581 1019 596 1004 q 565 1057 565 1035 z "},"Ž":{"ha":811,"x_min":69,"x_max":739,"o":"m 544 872 q 81 50 392 603 q 69 19 69 29 q 100 0 69 0 l 711 0 q 739 15 735 0 q 701 38 746 38 l 258 38 q 240 46 240 38 q 247 65 240 53 q 719 903 379 306 q 731 935 731 922 q 696 954 731 954 l 164 954 q 132 932 132 954 q 163 911 132 911 l 522 911 q 554 897 554 911 q 544 872 554 890 m 474 1006 l 544 1058 q 567 1083 567 1076 q 560 1095 567 1086 q 549 1104 553 1104 q 521 1089 542 1104 l 450 1036 q 438 1036 443 1031 l 365 1089 q 338 1104 344 1104 q 326 1095 333 1104 q 319 1083 319 1086 q 342 1058 319 1076 l 414 1006 q 443 990 435 990 q 474 1006 453 990 z "},"ž":{"ha":478,"x_min":69,"x_max":397,"o":"m 203 61 q 199 44 199 54 q 206 35 199 35 l 363 35 q 393 19 393 35 q 364 0 393 0 l 90 0 q 69 17 71 0 q 74 32 68 25 q 264 317 85 49 q 268 333 268 324 q 261 343 268 343 l 129 343 q 99 358 100 343 q 128 378 97 378 l 376 378 q 397 361 396 378 q 393 346 399 353 l 203 61 m 292 492 l 363 544 q 385 569 385 563 q 378 581 385 572 q 367 590 371 590 q 339 575 360 590 l 268 522 q 256 522 261 517 l 183 575 q 156 590 163 590 q 144 581 151 590 q 138 569 138 572 q 160 544 138 563 l 232 492 q 261 476 253 476 q 292 492 271 476 z "},"ƒ":{"ha":513,"x_min":-349,"x_max":594,"o":"m 257 564 q 549 885 431 890 q 594 815 594 882 q 590 782 594 797 q 547 735 575 732 q 517 775 517 738 q 558 831 517 822 q 556 853 557 842 q 532 867 554 865 q 378 671 490 869 q 322 564 350 621 l 407 564 l 392 547 l 314 547 q 210 315 304 528 q 85 68 147 178 q -10 -103 38 -17 q -118 -237 -64 -194 q -274 -296 -185 -294 q -327 -269 -306 -297 q -349 -207 -349 -242 q -304 -142 -349 -137 q -272 -181 -272 -144 q -275 -204 -272 -192 q -315 -236 -282 -233 q -308 -260 -315 -250 q -271 -282 -294 -285 q -94 -153 -174 -271 q 31 90 -62 -104 q 206 460 85 201 q 249 547 214 478 l 175 547 l 188 564 l 257 564 z "},"ˆ":{"ha":529,"x_min":133,"x_max":381,"o":"m 286 572 l 358 518 q 381 494 381 501 q 374 481 381 490 q 363 472 367 472 q 335 488 356 472 l 264 542 q 250 542 257 547 l 179 488 q 151 472 158 472 q 140 481 146 472 q 133 494 133 490 q 156 518 133 501 l 228 572 q 257 588 249 588 q 286 572 267 588 z "},"ˇ":{"ha":428,"x_min":97,"x_max":344,"o":"m 251 492 l 322 544 q 344 569 344 563 q 338 581 344 572 q 326 590 331 590 q 299 575 319 590 l 228 522 q 215 522 221 517 l 143 575 q 115 590 122 590 q 104 581 111 590 q 97 569 97 572 q 119 544 97 563 l 192 492 q 221 476 213 476 q 251 492 231 476 z "},"˘":{"ha":553,"x_min":165,"x_max":360,"o":"m 165 581 q 194 520 167 544 q 263 496 222 496 q 331 520 303 496 q 360 581 360 544 l 321 581 q 303 548 319 561 q 263 535 286 535 q 222 548 239 535 q 204 581 204 561 l 165 581 z "},"˙":{"ha":308,"x_min":43,"x_max":147,"o":"m 43 528 q 58 565 43 550 q 94 581 74 581 q 132 565 117 581 q 147 528 147 550 q 132 490 147 506 q 94 475 117 475 q 58 490 74 475 q 43 528 43 506 z "},"˚":{"ha":553,"x_min":165,"x_max":360,"o":"m 165 581 q 194 648 165 619 q 263 676 222 676 q 331 648 303 676 q 360 581 360 619 q 331 512 360 540 q 263 483 303 483 q 194 512 222 483 q 165 581 165 540 m 204 581 q 222 539 204 556 q 263 522 239 522 q 303 539 286 522 q 321 581 321 556 q 303 621 321 604 q 263 638 286 638 q 222 621 239 638 q 204 581 204 604 z "},"˛":{"ha":1389,"x_min":104,"x_max":396,"o":"m 171 0 l 229 0 q 174 -38 193 -6 q 160 -111 154 -71 q 204 -161 164 -143 q 275 -176 236 -176 q 368 -125 332 -176 l 396 -160 q 257 -236 347 -237 q 150 -200 196 -235 q 104 -111 104 -165 q 171 0 104 -36 z "},"˜":{"ha":547,"x_min":121,"x_max":396,"o":"m 132 529 q 200 546 161 551 q 253 530 221 542 q 307 515 286 518 q 375 533 349 510 q 388 540 382 540 q 396 531 396 540 q 385 508 396 519 q 306 483 353 476 q 251 498 283 486 q 196 513 218 510 q 156 506 178 515 q 131 497 133 497 q 121 508 121 497 q 132 529 121 521 z "},"˝":{"ha":514,"x_min":203,"x_max":442,"o":"m 251 624 q 288 632 263 647 q 294 597 311 618 q 210 506 254 550 q 203 501 204 500 q 204 510 201 503 q 251 624 213 529 m 399 624 q 435 632 410 647 q 442 597 458 618 q 357 506 401 550 q 350 501 351 500 q 351 510 349 503 q 399 624 360 529 z "},"Δ":{"ha":990,"x_min":0,"x_max":871,"o":"m 438 944 l 0 63 l 0 0 l 871 0 l 871 63 l 438 944 m 743 63 l 69 63 l 403 736 l 743 63 z "},"Ω":{"ha":1008,"x_min":29,"x_max":901,"o":"m 93 142 l 144 -3 l 349 -3 l 349 122 q 299 308 349 213 q 208 465 254 386 q 158 640 158 558 q 243 904 158 793 q 474 1021 335 1024 q 690 897 607 1018 q 772 633 763 790 q 732 460 778 550 q 646 304 689 382 q 597 122 597 210 l 597 -3 l 800 -3 l 838 146 l 793 157 l 778 69 l 663 69 l 663 96 q 724 289 663 193 q 839 447 782 368 q 901 640 900 543 q 775 942 903 825 q 475 1051 654 1051 q 163 942 290 1051 q 29 640 26 825 q 97 447 31 543 q 222 289 160 368 q 289 96 289 193 l 289 69 l 174 69 l 140 149 l 93 142 z "},"π":{"ha":774,"x_min":39,"x_max":699,"o":"m 301 583 l 476 583 q 467 465 467 518 q 510 239 467 364 q 618 36 553 114 q 665 -6 653 -6 q 699 40 699 -6 q 690 79 699 58 q 632 163 676 114 q 565 253 583 217 q 501 501 501 383 q 507 583 501 539 l 624 583 q 663 617 660 583 q 624 656 667 656 l 190 656 q 75 568 133 656 q 39 476 47 525 l 69 463 q 113 537 78 490 q 183 583 147 583 l 269 583 q 178 269 236 418 q 92 79 147 208 q 83 40 83 58 q 117 -6 83 -6 q 165 38 136 -6 q 210 138 194 82 q 239 250 225 194 q 301 583 288 417 z "},"–":{"ha":706,"x_min":54,"x_max":543,"o":"m 543 201 q 508 154 543 154 l 89 154 q 54 201 54 154 q 89 250 54 250 l 508 250 q 543 201 543 250 z "},"—":{"ha":1443,"x_min":54,"x_max":1281,"o":"m 1281 201 q 1246 154 1281 154 l 89 154 q 54 201 54 154 q 89 250 54 250 l 1246 250 q 1281 201 1281 250 z "},"‘":{"ha":344,"x_min":65,"x_max":218,"o":"m 200 718 q 114 821 125 771 q 129 842 108 839 q 149 842 129 842 q 198 862 178 842 q 218 910 218 882 q 198 959 218 939 q 149 979 178 979 q 92 951 118 979 q 65 881 65 922 q 101 767 65 817 q 175 696 115 749 q 192 688 183 688 q 208 703 208 688 q 200 718 208 711 z "},"’":{"ha":331,"x_min":54,"x_max":207,"o":"m 72 718 q 158 821 146 771 q 143 842 163 839 q 124 842 143 842 q 74 862 94 842 q 54 911 54 882 q 74 959 54 939 q 124 979 94 979 q 179 953 154 979 q 207 881 207 922 q 169 768 207 817 q 97 696 156 749 q 79 688 89 688 q 64 703 64 688 q 72 718 64 711 z "},"‚":{"ha":361,"x_min":54,"x_max":207,"o":"m 72 -139 q 158 -36 146 -86 q 143 -15 163 -18 q 124 -15 143 -15 q 74 5 94 -15 q 54 54 54 25 q 74 102 54 82 q 124 122 94 122 q 179 96 154 122 q 207 24 207 65 q 169 -89 207 -40 q 97 -161 156 -108 q 79 -169 89 -169 q 64 -154 64 -169 q 72 -139 64 -146 z "},"“":{"ha":558,"x_min":65,"x_max":432,"o":"m 200 718 q 114 821 125 771 q 129 842 108 839 q 149 842 129 842 q 198 862 178 842 q 218 910 218 882 q 198 959 218 939 q 149 979 178 979 q 92 951 118 979 q 65 881 65 922 q 101 767 65 817 q 175 696 115 749 q 192 688 183 688 q 208 703 208 688 q 200 718 208 711 m 414 718 q 328 821 339 771 q 343 842 322 839 q 363 842 343 842 q 412 862 392 842 q 432 910 432 882 q 412 959 432 939 q 363 979 392 979 q 306 951 332 979 q 279 881 279 922 q 315 767 279 817 q 389 696 329 749 q 406 688 397 688 q 422 703 422 688 q 414 718 422 711 z "},"”":{"ha":551,"x_min":54,"x_max":428,"o":"m 72 718 q 158 821 146 771 q 143 842 163 839 q 124 842 143 842 q 74 862 94 842 q 54 911 54 882 q 74 959 54 939 q 124 979 94 979 q 179 953 154 979 q 207 881 207 922 q 169 768 207 817 q 97 696 156 749 q 79 688 89 688 q 64 703 64 688 q 72 718 64 711 m 293 718 q 379 821 367 771 q 364 842 383 839 q 344 842 364 842 q 295 862 315 842 q 275 911 275 882 q 295 959 275 939 q 344 979 315 979 q 400 953 375 979 q 428 881 428 922 q 390 768 428 817 q 318 696 376 749 q 300 688 310 688 q 285 703 285 688 q 293 718 285 711 z "},"„":{"ha":589,"x_min":54,"x_max":435,"o":"m 300 -139 q 386 -36 374 -86 q 371 -15 390 -18 q 351 -15 371 -15 q 302 5 322 -15 q 282 54 282 25 q 302 102 282 82 q 351 122 322 122 q 407 96 382 122 q 435 24 435 65 q 397 -89 435 -40 q 325 -161 383 -108 q 307 -169 317 -169 q 292 -154 292 -169 q 300 -139 292 -146 m 72 -139 q 158 -36 146 -86 q 143 -15 163 -18 q 124 -15 143 -15 q 74 5 94 -15 q 54 54 54 25 q 74 102 54 82 q 124 122 94 122 q 179 96 154 122 q 207 24 207 65 q 169 -89 207 -40 q 97 -161 156 -108 q 79 -169 89 -169 q 64 -154 64 -169 q 72 -139 64 -146 z "},"†":{"ha":467,"x_min":17,"x_max":440,"o":"m 94 613 q 68 610 81 610 q 17 657 17 610 q 69 704 17 704 q 94 701 81 704 l 208 676 l 185 790 q 182 817 182 804 q 229 868 182 868 q 276 815 276 868 q 274 790 276 804 l 249 676 l 363 700 q 389 703 376 703 q 440 656 440 703 q 389 608 440 608 q 363 611 376 608 l 249 636 q 274 557 278 621 q 235 29 263 385 q 226 7 233 7 q 218 29 219 7 q 185 557 206 290 q 183 594 182 590 q 208 635 186 621 l 94 613 z "},"‡":{"ha":467,"x_min":17,"x_max":440,"o":"m 94 613 q 68 610 81 610 q 17 657 17 610 q 69 704 17 704 q 94 701 81 704 l 208 676 l 185 790 q 182 817 182 804 q 229 868 182 868 q 276 815 276 868 q 274 790 276 804 l 249 676 l 363 700 q 389 703 376 703 q 440 656 440 703 q 389 608 440 608 q 363 611 376 608 l 249 636 q 274 557 281 619 q 249 397 268 500 l 274 238 q 249 158 285 176 q 363 183 269 164 q 389 186 376 186 q 440 139 440 186 q 389 92 440 92 q 363 94 376 92 l 249 118 q 274 4 254 99 q 276 -21 276 -10 q 229 -74 276 -74 q 182 -22 182 -74 q 185 4 182 -10 l 208 118 q 94 93 189 114 q 69 90 81 90 q 17 138 17 90 q 68 185 17 185 q 94 182 81 185 l 208 160 q 185 238 176 181 l 211 397 q 185 557 201 450 q 208 635 176 615 l 94 613 z "},"•":{"ha":557,"x_min":128,"x_max":403,"o":"m 128 325 q 167 422 128 382 q 265 463 207 463 q 363 422 322 463 q 403 325 403 382 q 363 228 403 268 q 265 188 322 188 q 167 228 207 188 q 128 325 128 268 z "},"…":{"ha":1125,"x_min":79,"x_max":969,"o":"m 832 69 q 852 117 832 97 q 901 138 872 138 q 949 117 929 138 q 969 69 969 97 q 949 20 969 40 q 901 0 929 0 q 852 20 872 0 q 832 69 832 40 m 456 69 q 476 117 456 97 q 525 138 496 138 q 573 117 553 138 q 593 69 593 97 q 573 20 593 40 q 525 0 553 0 q 476 20 496 0 q 456 69 456 40 m 79 69 q 99 117 79 97 q 149 138 119 138 q 197 117 176 138 q 217 69 217 97 q 197 20 217 40 q 149 0 176 0 q 99 20 119 0 q 79 69 79 40 z "},"‰":{"ha":1313,"x_min":67,"x_max":1268,"o":"m 408 218 q 467 388 408 317 q 610 458 526 458 q 750 386 700 458 q 796 222 796 322 q 751 54 796 121 q 608 -19 700 -19 q 454 60 510 -19 q 408 218 408 128 m 486 211 q 611 -1 486 -1 q 735 69 690 -1 q 772 221 772 131 q 738 365 772 306 q 626 435 696 435 q 486 211 486 435 m 67 715 q 126 883 67 813 q 268 954 186 954 q 410 883 360 954 q 456 719 456 818 q 410 551 456 618 q 268 476 360 476 q 114 557 169 476 q 67 715 67 624 m 146 707 q 271 496 146 496 q 393 565 350 496 q 432 718 432 628 q 397 863 432 801 q 285 931 356 931 q 146 707 146 931 m 200 -10 q 189 3 189 -4 q 199 29 189 10 l 638 921 q 649 942 647 940 q 669 943 657 950 q 682 931 682 938 q 672 904 682 924 l 233 13 q 221 -8 224 -7 q 200 -10 214 -17 m 879 218 q 938 388 879 317 q 1081 458 997 458 q 1222 386 1171 458 q 1268 222 1268 322 q 1222 54 1268 121 q 1079 -19 1171 -19 q 926 60 981 -19 q 879 218 879 128 m 957 211 q 1082 -1 957 -1 q 1206 69 1161 -1 q 1244 221 1244 131 q 1208 365 1244 306 q 1097 435 1168 435 q 957 211 957 435 z "},"‹":{"ha":443,"x_min":85,"x_max":283,"o":"m 254 617 q 272 631 265 631 q 283 618 276 631 q 278 578 294 599 l 132 392 q 132 369 124 381 l 278 185 q 283 143 294 164 q 271 132 276 132 q 254 146 265 132 l 86 358 q 85 399 71 379 q 254 617 92 408 z "},"›":{"ha":443,"x_min":128,"x_max":326,"o":"m 157 617 q 139 631 146 631 q 128 618 135 631 q 133 578 117 599 l 279 392 q 279 369 288 381 l 133 185 q 128 143 117 164 q 140 132 135 132 q 157 146 146 132 l 325 358 q 326 399 340 379 q 157 617 319 408 z "},"⁄":{"ha":672,"x_min":60,"x_max":553,"o":"m 71 -10 q 60 3 60 -4 q 69 29 60 10 l 508 921 q 519 942 518 939 q 540 943 526 949 q 553 931 553 938 q 543 904 553 924 l 104 13 q 93 -8 94 -6 q 71 -10 85 -15 z "},"€":{"ha":1140,"x_min":57,"x_max":1076,"o":"m 143 525 l 92 525 q 67 526 71 525 q 57 544 57 529 q 67 563 57 560 q 92 563 71 563 l 149 563 q 179 583 174 563 q 346 856 218 747 q 642 964 474 964 q 981 818 868 964 q 996 793 996 797 q 978 772 996 772 q 953 789 968 772 q 658 933 818 933 q 417 815 506 933 q 333 581 343 718 q 357 563 332 563 l 1042 563 q 1067 563 1063 563 q 1076 544 1076 560 q 1067 526 1076 529 q 1042 525 1063 525 l 351 525 q 324 499 325 525 q 322 439 324 474 q 346 421 321 421 l 1031 421 q 1056 421 1051 421 q 1065 403 1065 418 q 1056 385 1065 388 q 1031 383 1051 383 l 353 383 q 326 357 326 383 q 656 17 379 17 q 845 70 757 17 q 990 218 933 124 q 1008 238 1001 238 q 1022 232 1014 238 q 1038 219 1038 221 q 1019 185 1038 213 q 863 38 957 90 q 642 -21 761 -21 q 330 82 456 -21 q 174 356 204 185 q 144 383 168 383 l 103 383 q 78 385 82 383 q 68 403 68 388 q 78 421 68 418 q 103 421 82 421 l 142 421 q 164 444 164 421 q 165 503 164 481 q 143 525 168 525 z "},"™":{"ha":913,"x_min":88,"x_max":789,"o":"m 340 1001 l 251 1001 l 251 649 q 221 635 251 635 q 190 649 190 635 l 190 1001 l 101 1001 q 88 1008 88 1001 q 101 1017 88 1017 l 340 1017 q 354 1010 354 1017 q 340 1001 354 1001 m 449 869 q 576 646 514 751 q 592 644 585 632 q 719 883 599 657 q 728 881 728 900 l 728 649 q 758 635 728 635 q 789 649 789 635 l 789 1003 q 779 1017 789 1017 q 768 1008 772 1017 l 613 719 q 599 719 606 707 q 440 1007 549 808 q 426 1017 435 1018 q 418 1003 418 1015 l 418 649 q 426 635 418 635 q 433 649 433 635 l 433 867 q 439 876 433 875 q 449 869 444 876 z "},"∂":{"ha":536,"x_min":60,"x_max":490,"o":"m 379 314 q 296 349 358 349 q 177 303 222 349 q 132 188 132 257 q 274 24 131 24 q 358 103 328 24 q 385 254 385 169 q 379 314 385 290 m 490 326 q 467 138 499 226 q 268 -11 415 -11 q 142 46 190 -11 q 94 186 94 103 q 153 326 94 268 q 296 383 213 383 q 371 369 335 383 q 285 671 351 526 q 88 893 201 846 q 60 914 60 904 q 81 922 60 922 q 97 919 89 922 q 374 672 257 867 q 490 326 476 500 z "},"∏":{"ha":956,"x_min":63,"x_max":907,"o":"m 785 833 q 799 869 785 853 q 833 885 814 885 l 907 885 l 907 918 l 63 918 l 63 885 l 136 885 q 170 867 156 885 q 185 833 185 850 l 185 35 q 261 0 185 0 q 338 35 338 0 l 338 833 q 352 869 338 853 q 386 885 367 885 l 582 885 q 616 867 601 885 q 631 833 631 850 l 632 35 q 708 0 633 0 q 785 35 785 0 l 785 833 z "},"∑":{"ha":942,"x_min":86,"x_max":821,"o":"m 746 0 l 821 274 l 790 274 l 772 229 q 672 87 739 146 q 543 28 604 28 l 303 28 q 254 49 268 28 q 250 99 236 76 l 513 529 l 339 815 q 342 864 324 842 q 390 886 361 886 l 594 886 q 661 878 643 886 q 697 847 668 875 q 786 697 767 782 l 796 654 l 817 654 l 788 914 l 86 914 l 86 886 l 118 886 q 167 857 138 886 q 194 815 174 850 l 388 494 l 388 419 l 194 99 q 165 57 188 85 q 122 28 136 28 l 86 28 l 86 0 l 746 0 z "},"√":{"ha":1221,"x_min":-79,"x_max":1149,"o":"m 761 971 l 324 0 l 194 0 l 21 350 l -28 299 l -79 365 l 93 539 l 303 111 l 732 1036 l 1149 1036 l 1149 971 l 761 971 z "},"∞":{"ha":1306,"x_min":33,"x_max":1201,"o":"m 568 263 q 458 425 468 413 q 313 500 393 501 q 160 449 226 499 q 90 321 90 394 q 156 172 90 240 q 313 100 224 100 q 568 263 468 100 m 671 381 q 776 218 776 219 q 919 142 840 142 q 1075 194 1007 142 q 1143 321 1143 246 q 1078 469 1143 400 q 919 542 1008 542 q 671 381 774 542 m 653 407 q 749 529 701 490 q 890 579 810 579 q 1125 497 1038 579 q 1201 321 1201 424 q 1124 140 1201 211 q 890 64 1040 64 q 586 238 708 64 q 488 115 535 154 q 342 64 424 64 q 110 140 193 64 q 33 321 33 210 q 108 497 33 424 q 342 579 194 579 q 653 407 535 579 z "},"∫":{"ha":379,"x_min":-112,"x_max":404,"o":"m 260 828 l 150 -31 q 89 -186 139 -117 q -47 -267 31 -265 q -107 -246 -87 -267 q -112 -231 -112 -239 q -93 -212 -112 -212 q -78 -217 -86 -212 q -42 -228 -57 -228 q 32 -129 19 -226 l 142 729 q 203 885 153 815 q 338 964 261 964 q 397 943 378 965 q 404 928 404 936 q 385 911 404 911 q 369 915 378 911 q 333 925 349 926 q 260 828 272 924 z "},"≈":{"ha":807,"x_min":136,"x_max":644,"o":"m 136 663 l 158 663 q 315 731 229 729 q 393 697 343 731 q 499 663 443 664 q 644 806 611 660 l 631 806 q 496 747 571 750 q 417 779 475 746 q 321 813 358 813 q 136 663 179 810 m 136 446 l 158 446 q 315 514 226 513 q 393 481 343 514 q 499 446 443 447 q 644 589 610 443 l 631 589 q 496 531 571 533 q 417 563 475 529 q 321 596 358 596 q 136 446 179 593 z "},"≠":{"ha":499,"x_min":42,"x_max":456,"o":"m 261 446 l 46 446 l 46 492 l 296 492 l 397 631 l 456 631 l 354 492 l 433 492 l 433 446 l 321 446 l 243 342 l 433 342 l 433 296 l 208 296 l 100 149 l 42 149 l 150 296 l 46 296 l 46 342 l 183 342 l 261 446 z "},"≤":{"ha":581,"x_min":83,"x_max":419,"o":"m 342 638 q 368 651 358 651 q 385 640 375 651 q 394 624 394 629 q 376 599 394 614 l 156 414 q 146 403 146 406 q 157 392 146 401 l 376 208 q 394 183 394 193 q 385 167 394 178 q 367 156 375 156 q 340 169 357 156 l 88 381 q 83 421 64 401 q 342 638 94 431 m 150 67 q 125 68 129 67 q 115 86 115 71 q 125 104 115 101 q 150 106 129 106 l 385 106 q 410 104 406 106 q 419 86 419 101 q 410 68 419 71 q 385 67 407 67 l 150 67 z "},"≥":{"ha":581,"x_min":114,"x_max":450,"o":"m 192 638 q 165 651 175 651 q 149 640 158 651 q 139 624 139 629 q 157 599 139 614 l 378 414 q 388 403 388 406 q 376 392 388 401 l 157 208 q 139 183 139 193 q 149 167 139 178 q 167 156 158 156 q 193 169 176 156 l 446 381 q 450 421 469 401 q 192 638 439 431 m 383 67 q 408 68 404 67 q 418 86 418 71 q 408 104 418 101 q 383 106 404 106 l 149 106 q 124 104 128 106 q 114 86 114 101 q 124 68 114 71 q 149 67 126 67 l 383 67 z "},"◊":{"ha":703,"x_min":28,"x_max":597,"o":"m 28 451 l 313 931 l 597 465 l 313 0 l 28 451 m 311 106 l 529 463 l 311 819 l 94 453 l 311 106 z "},"":{"ha":1186,"x_min":83,"x_max":1108,"o":"m 897 -39 l 593 260 l 296 -39 l 515 -39 q 572 -58 549 -39 q 600 -90 582 -67 q 674 -39 615 -39 l 897 -39 m 468 -229 q 336 -225 363 -229 q 215 -179 271 -217 q 99 -1 125 -118 q 83 235 83 65 l 83 572 q 97 807 83 746 q 215 985 122 924 q 336 1031 272 1022 q 468 1035 367 1035 l 722 1035 q 854 1031 824 1035 q 975 985 918 1021 q 1094 807 1069 924 q 1108 572 1108 746 l 1108 235 q 1094 -1 1108 60 q 975 -179 1069 -118 q 854 -225 918 -215 q 722 -229 824 -229 l 468 -229 m 956 506 q 979 551 956 533 q 1029 568 1003 569 l 1029 604 l 160 604 l 160 568 q 208 553 185 569 q 233 506 233 531 l 232 32 l 593 390 l 956 26 l 956 506 m 576 668 m 640 669 l 638 669 q 629 668 635 669 q 619 665 624 667 q 604 667 615 667 q 589 668 599 668 l 586 668 q 578 682 583 672 q 561 733 561 725 q 589 758 561 758 q 618 761 606 763 q 607 743 611 754 q 612 719 604 732 q 626 694 619 707 q 640 669 628 692 m 561 663 q 547 653 553 661 q 524 664 538 664 q 499 653 510 664 q 476 664 489 664 q 450 653 458 667 q 426 664 440 664 q 400 653 411 665 q 379 663 392 661 q 352 652 364 664 q 344 625 340 640 q 368 615 347 615 q 396 625 385 614 q 417 615 406 617 q 443 625 432 615 q 465 615 453 615 q 493 625 482 614 q 513 615 503 615 q 540 625 531 613 q 561 614 547 615 q 589 625 578 611 q 610 614 596 615 q 638 625 628 611 q 656 614 644 617 q 685 625 674 610 q 704 614 692 615 q 732 625 722 611 q 754 614 739 615 q 782 625 771 613 q 804 614 789 615 q 831 624 819 611 q 839 651 843 636 q 814 664 836 661 q 788 653 799 665 q 764 664 778 664 q 738 653 749 667 q 715 664 732 661 q 690 653 701 665 q 676 663 685 661 l 688 663 q 650 669 674 669 l 647 669 q 631 713 642 683 q 624 729 631 715 q 622 744 619 738 q 647 764 629 764 q 671 760 653 764 q 699 758 689 757 q 751 817 749 765 q 733 885 753 861 q 696 913 728 893 q 674 946 675 926 q 697 964 674 954 q 717 964 706 967 q 736 960 732 960 q 794 964 768 958 l 775 971 l 794 979 q 769 982 789 979 q 743 992 760 983 q 728 1011 740 999 q 696 1015 718 1015 q 655 992 671 1013 q 639 944 639 971 q 641 929 639 938 q 661 908 643 921 q 678 882 679 894 q 663 868 676 872 q 625 877 647 865 q 575 890 603 889 q 531 869 553 890 q 499 847 508 847 q 486 850 493 847 q 460 876 474 857 q 450 893 454 883 q 442 876 444 888 q 451 850 439 865 q 463 828 463 835 q 447 779 460 794 q 492 796 464 799 q 518 781 500 790 q 557 765 536 771 q 547 749 553 761 q 544 736 544 743 q 567 690 544 732 q 576 668 574 678 q 572 668 575 668 q 567 667 569 667 q 561 665 565 667 q 554 663 557 664 l 561 663 m 610 663 q 594 653 600 660 q 581 663 589 661 l 610 663 m 658 663 q 643 653 649 660 q 628 663 638 661 l 658 663 m 825 451 l 888 413 l 839 413 l 888 385 l 839 385 l 883 357 l 839 357 l 839 329 l 811 329 l 811 357 l 767 357 l 811 385 l 767 385 l 811 413 l 769 413 l 825 451 m 593 126 l 656 89 l 607 89 l 656 60 l 607 60 l 651 33 l 607 33 l 607 6 l 579 6 l 579 33 l 535 33 l 579 60 l 535 60 l 579 89 l 536 89 l 593 126 m 360 451 l 422 413 l 374 413 l 422 385 l 374 385 l 419 357 l 374 357 l 374 329 l 347 329 l 347 357 l 301 357 l 347 385 l 301 385 l 347 413 l 304 413 l 360 451 z "},"":{"ha":593,"x_min":65,"x_max":540,"o":"m 231 825 l 231 488 q 253 471 231 471 q 270 471 257 471 q 293 471 283 471 q 325 451 325 471 q 293 433 325 433 q 270 433 283 433 q 253 433 257 433 q 231 411 231 433 l 231 31 q 213 3 231 8 q 178 0 206 0 q 143 3 150 0 q 125 31 125 8 l 125 413 q 100 433 125 433 q 75 433 79 433 q 65 451 65 436 q 75 469 65 467 q 102 471 79 471 q 125 489 125 471 l 125 728 q 167 882 125 814 q 292 961 214 961 q 354 939 332 961 q 363 922 363 931 q 346 907 363 907 q 329 911 338 907 q 292 922 307 922 q 231 825 231 922 m 485 0 q 449 3 456 0 q 432 31 432 8 l 432 347 q 449 375 432 369 q 485 378 456 378 q 519 375 513 378 q 538 347 538 369 l 538 31 q 519 3 538 8 q 485 0 513 0 m 435 528 q 450 565 435 550 q 488 581 465 581 q 525 565 510 581 q 540 528 540 550 q 525 490 540 506 q 488 475 510 475 q 450 490 465 475 q 435 528 435 506 z "},"":{"ha":522,"x_min":65,"x_max":442,"o":"m 336 471 l 336 924 q 311 922 328 922 q 255 891 279 922 q 231 825 231 860 l 231 489 q 253 472 231 472 q 288 472 257 472 q 336 471 324 471 m 389 0 q 354 3 361 0 q 336 31 336 8 l 336 433 l 253 433 q 231 411 231 433 l 231 31 q 213 3 231 8 q 178 0 206 0 q 143 3 150 0 q 125 31 125 8 l 125 413 q 100 433 125 433 q 75 433 79 433 q 65 451 65 436 q 75 469 65 467 q 102 471 79 471 q 125 489 125 471 l 125 728 q 176 882 125 811 q 311 961 233 961 l 389 961 q 425 958 417 961 q 442 931 442 953 l 442 31 q 425 3 442 8 q 389 0 417 0 z "}}}
